<svg id="Layer_1" data-name="Layer 1" xmlns="http://www.w3.org/2000/svg" viewBox="0 0 1500 1500"><defs><style>.cls-1,.cls-2{fill:#fff;}.cls-2{stroke:#fff;stroke-miterlimit:10;stroke-width:5.02px;}</style></defs><circle cx="750" cy="750" r="650"/><path class="cls-1" d="M377.55,919.11c0,18.07-14.09,29.87-34.15,29.87H323.64v49.93H310.16V891.07H343.4C363.46,891.07,377.55,901,377.55,919.11Zm-37.07,23.74c16.09,0,23-11.8,23-23.74s-6.89-21.9-23-21.9H323.64v45.64Z"/><path class="cls-1" d="M412.49,998.91H399V891.07h13.48Z"/><path class="cls-1" d="M452.77,897.21v43.95h31.4v6.13h-31.4v45.49h53.31v6.13H439.29V891.07h66.79v6.14Z"/><path class="cls-1" d="M634.44,998.91l-7.5-9c-7.66,6.9-17.92,10.88-30.63,10.88-25.74,0-38.91-13-38.91-30.79,0-14.24,8.73-25.89,24.66-34-3.53-4-11.79-14.39-11.79-23.27,0-12.57,8.57-22.83,25-22.83,16.55,0,25,8.12,25,21.14,0,14.55-8.42,21.29-20.22,25.43l31.56,37.52c4.13-8,6.43-17.77,6.43-28.64h6.12c0,12.71-2.75,24.36-8.27,33.69l16.7,19.92ZM623,985.28,585.89,941c-8.27,4.29-12.56,14.24-12.56,25.58,0,15.47,7.81,28,23,28C607,994.62,616.07,991.4,623,985.28Zm-40-76.13c0,7.5,7.66,17,12.41,22.06.45,0,18.68-3.37,18.68-20.22,0-8.12-5.51-15-17.76-15C587.88,896,583,903.48,583,909.15Z"/><path class="cls-1" d="M777.37,992.78v6.13H710.59V891.07h13.47V992.78Z"/><path class="cls-1" d="M787,998.91l42.42-110.28H833l42.28,110.28h-14.4l-12.71-33.08H806.63l-12.71,33.08Zm21.9-39.22h36.76L827.31,911.6Z"/><path class="cls-1" d="M952.46,897.21H916.77v101.7H903.29V897.21H867.6v-6.14h84.86Z"/><path class="cls-1" d="M1045.6,897.21h-35.69v101.7H996.43V897.21H960.74v-6.14h84.86Z"/><path class="cls-1" d="M1074.71,897.21v43.95h31.4v6.13h-31.4v45.49H1128v6.13h-66.78V891.07H1128v6.14Z"/><path class="cls-1" d="M1173.67,935.35c17.15,3.82,36,8.11,36,32.92,0,18.39-16.39,33.09-36.76,33.09-12.71,0-24.05-5.82-30.64-14.55l4.45-4.45c5.36,7.67,15.16,12.88,26.19,12.88,10,0,27.87-6.14,27.87-22.06,0-15.62-15.16-19.76-30.94-23.6-15.62-3.82-31.09-8.88-31.09-30.32,0-16.85,15.32-30.63,34.16-30.63,11.49,0,21.75,5.21,27.87,13l-4.28,4.45c-5.06-6.89-13.79-11.34-23.59-11.34-7.51,0-24.81,4.29-24.81,19.46C1148.09,927.22,1159.27,932.12,1173.67,935.35Z"/><path class="cls-1" d="M487.49,1104.41c0,7.36-5.49,12.16-13.3,12.16H466.5v20.33h-5.26V1093h12.95C482,1093,487.49,1097.05,487.49,1104.41Zm-14.43,9.66c6.26,0,8.94-4.8,8.94-9.66s-2.68-8.92-8.94-8.92H466.5v18.58Z"/><path class="cls-1" d="M562.17,1136.9h-5.24V1093h5.24Z"/><path class="cls-1" d="M659.7,1134.4v2.5h-26V1093h5.25v41.41Z"/><path class="cls-1" d="M724.54,1136.9l16.52-44.9h1.37l16.46,44.9h-5.6l-4.95-13.47H732.17l-4.95,13.47Zm8.53-16h14.31l-7.16-19.58Z"/><path class="cls-1" d="M850,1095.49h-13.9v41.41h-5.25v-41.41H817V1093h33Z"/><path class="cls-1" d="M922.46,1095.49v17.9h12.22v2.49H922.46v18.52h20.75v2.5h-26V1093h26v2.5Z"/><path class="cls-1" d="M1022.07,1111c6.68,1.56,14,3.3,14,13.4,0,7.49-6.38,13.48-14.32,13.48a14.71,14.71,0,0,1-11.93-5.93l1.73-1.81a12.29,12.29,0,0,0,10.2,5.24c3.88,0,10.86-2.49,10.86-9s-5.91-8.05-12.05-9.6-12.11-3.62-12.11-12.35c0-6.86,6-12.47,13.3-12.47a13.56,13.56,0,0,1,10.86,5.3l-1.67,1.81a11.17,11.17,0,0,0-9.19-4.62c-2.92,0-9.66,1.75-9.66,7.92C1012.11,1107.71,1016.47,1109.71,1022.07,1111Z"/><line class="cls-2" x1="461.24" y1="1207.72" x2="1038.06" y2="1207.72"/><path class="cls-1" d="M651.37,250.6a4.73,4.73,0,0,1,2,2.24c.38,1.31.87,2.19,2.45,1.47.28-.13.92-.05,1,.14,1.14,2,3.46,1.88,5.12,2.89a33.34,33.34,0,0,1,9.35,7.87c3.66,4.79,8.67,8,12.93,12.1.52.5,1.31.92,1.52,1.53,1.41,4.13,4.75,5.76,8.55,6.93,9.5,2.93,12,6.2,12.7,16.32.21,3.07-.5,6.23,1,9.17a9.28,9.28,0,0,0,1.52,2.57c13,12.76,25.65,25.82,39.39,37.74,11.85,10.27,19.16,23.08,23.4,37.95,2.68,9.41,5.87,18.68,8.46,28.11,2.34,8.49,7,15.48,13,21.58,6.33,6.35,12.87,12.49,19.31,18.73a114,114,0,0,1,17.82,21.86,98.32,98.32,0,0,0,27.48,28.78,80.46,80.46,0,0,1,18.17,17.78c4.91,6.56,7.13,14,7.84,22.18,1,11.31-1.62,21.73-6.58,31.79a75.74,75.74,0,0,0-6.71,20.24c-3.34,18.71-11.78,35-23.46,49.8-1.11,1.41-3.49,2.66-2.46,4.76s3.51,1,5.28.94c12.71-.49,24.85,2.8,37.08,5.46a37,37,0,0,0,9.75,1.3c7.42-.36,14.8.9,22.21.58,2-.08,3.35,1.34,5.22,1.48,7,.53,14,1.08,21,1.83,4.39.47,8.72,1,12.5,4,2,1.55,4.94,1.62,7.54,2,1.57.23,3,.46,4,1.94a4.15,4.15,0,0,0,3.1,1.6c2.89.2,5.43,1.57,8.18,2.18,2.13.48,4.31.5,4.84,3.7.32,1.91,3,2.46,4.9,3.1a87,87,0,0,1,17.45,8.52,3.35,3.35,0,0,1,2,3.06,2.07,2.07,0,0,0,1.37,2.16c1,.37,1.11-.73,1.63-1.15A139.66,139.66,0,0,0,1024,687.59a4.68,4.68,0,0,1,5.09-1c6,2,11.15,5.09,14.65,10.47a4.54,4.54,0,0,0,4.5,2.46c1.46-.12,2.94,0,4.39-.08,1.95-.18,3.09-1.27,2.62-3.32a20.83,20.83,0,0,1-.34-4.91c0-4.26,2.21-6.82,6.49-6.89,10.33-.16,20.69-.29,31,.05,4.31.14,8,2.91,11.93,4.66a12.12,12.12,0,0,0,7.63,1.23,160,160,0,0,1,32.18-2.78,6,6,0,0,0,3.18-.65c2.8-1.64,5.59-1.52,8.69-.51,14.53,4.75,28.53,10.92,42.85,16.22,10.9,4,21.56,8.63,32.38,12.87,4.7,1.85,7.74,4.63,8.85,9.52v2.19a14.57,14.57,0,0,1-1,2.83c-2.28,3.72-4.41,7.33-9.67,7.84-2.41.24-4.39-1.1-6.61-.62-14.6,3.15-29.36,3.79-44.22,3-1.43-.07-1.83.53-2.14,1.82-1.65,6.66-6.25,11-13,10.72a10.11,10.11,0,0,0-9,3.74c-1.75,1.92-3.63,3.6-3.65,6.44,0,1.62-.86,2.25-2.44,2.22-3.65-.07-7.31.34-10.95.35-28.55.08-57.09.08-85.64.66-5.74.11-11.5.07-17.27-.26-3.28-.19-5.93-2.23-9.38-1.89-7,.68-14.11-.94-20.93,1.71-21.86.22-43.73-.13-65.6.34s-43.93.07-65.89.15c-13.52,0-27,.69-40.54.25-11-.35-21.89.21-32.84.05-9.37-.13-18.77-.43-28.16-.24-14,.3-28,0-42,.31-16.82.43-33.65,0-50.48.53-19.29.58-38.6.13-57.91.61-18.28.46-36.57.34-54.86.17-7.24-.07-14.37,1.41-21.61,1-4.27-.26-8.48-1.3-12.82-.92-3.27.3-6.57.29-9.86.29q-59,0-118.07,0c-19.58,0-39.16.06-58.74,0-16.76-.06-33.55.79-50.24-1.53-1.11-.15-2.36-.06-2.3-1.65s1.28-1.57,2.4-1.66c2.91-.23,5.71.21,8.6-1.57,3.05-1.89,4-2.77,3.18-6.75-.29-1.42-.85-2.13-2.32-2.07-7.12.32-14.27-.56-21.36.77-3.69.7-5.13-.52-5-4.39.25-9.54-1.25-19.21,2-28.56.39-1.1.83-2.67,2-1.7,2.13,1.79,4.13,2.29,6.63,1.17.22-.1.65.24,1,.4,2.68,1.24,3.11.91,3.38-1.87.83-8.66.58-17.36.71-26,.28-19,.7-38,.92-57,0-1.93.07-3.65-2-5-1.77-1.13-1.78-3.77-.35-4,1.95-.34,2.3-1.42,2.42-3a2.44,2.44,0,0,1,2.71-2.48c2,0,4.81-1,5.59,1.53.89,2.8,2.25,3.67,4.92,3.27a2,2,0,0,1,1.57.27c1.86,2,3.83,1.84,6.29,1.12,1.24-.37,2.22-.45,2.63-1.76.29-.94.87-1.29,1.81-1.71,3.06-1.38,6.27-2.6,8.69-5.05,3-3,5.4-6.39,8.79-9.08,4.78-3.79,8.88-8.42,13.37-12.6,14.29-13.34,28.45-26.83,42.64-40.29q15.42-14.62,30.81-29.3,19.45-18.56,38.87-37.17c10.36-9.93,20.73-19.86,31-29.9,4.23-4.15,8.46-8.34,12.75-12.4,4.49-4.25,9.08-8.45,13.47-12.83,3.62-3.6,6.65-7.79,10.17-11.5,8.05-8.51,16.71-16.4,25.28-24.37,1.06-1,2.29-1.83,2.67-3.39.81-3.3,3.21-5.21,6.18-6.27a5.08,5.08,0,0,0,3.19-2.68c2.12-4.36,4.32-8.68,6.51-13,.83-1.64,1.63-3.46,3.24-4.34a26.05,26.05,0,0,0,5.53-4.67q13.51-13.28,26.58-27c13.29-13.88,26.74-27.6,40.14-41.37,3.38-3.47,3.6-3.56,1-7.46s-4.26-8.29-7.7-11.26c-2.78-2.39-4.57-5.4-6.86-8.08-1.4-1.65-2.19-3.81-.82-5.83s3.28-1.44,5.21-.74c1.31.48,2.71.37,2.9-1.42.21-2,.37-4.07-.75-5.88-.75-1.22-1.65-2.31-.36-3.65a3.33,3.33,0,0,1,4.22-.91c1.6.85,2.58.09,3.58-.94ZM374.08,623.53c8.05,1.33,15.88,3.2,23.74,4.91,17.4,3.81,34.85,7.35,52.28,11,14.11,3,28.2,6,42.31,9,9.21,1.94,18.44,3.77,27.66,5.67,14.6,3,29.12,6.53,43.82,8.93,18,2.92,35.62,7.33,53.48,10.76,5.39,1,10.75,2.22,16.12,3.33,1.09.22,2.27.47,2.67-1,.52-2,2.18-2.35,3.76-2.77,3.87-1,4.05-2.14,1.63-5.2-7-8.76-7.9-14.5-.37-24,4.08-5.13,9.28-9,14.61-12.77,1.78-1.24,3.2-3.06,5.42-3.65,6.74-1.8,13.2-4.61,20.26-5.29,3-.28,5.86-.48,8.48,1.19,3.15,2,6.31,1.51,9.43.11a40.58,40.58,0,0,0,4.49-2.64c3.25-2,5.26-1.2,5.86,2.51.36,2.26,1,3.88,3.69,3.65,1.07-.09,1.75.84,2.6,1.31,1.41.79,3.44,2,4.43,0a11.77,11.77,0,0,1,4.27-4.49c4.64-3.24,12.92-.92,14.7,4.23,1.49,4.3,2.58,8.74,3.86,13.11.24.84,0,2.1,1.08,2.3s1.52-.87,2.07-1.58a112.78,112.78,0,0,0,11-16.72c3.36-6.4,6.64-12.8,12.09-17.82,7.41-6.82,16.4-7.61,24.52-1.81a6.83,6.83,0,0,0,5.93,1.15c3.77-.87,7-3.11,10.85-3.78.75-.13,1-.94,1.51-1.48,2.87-3.21,1.94-6.84,1.24-10.41-1.62-8.23-4.22-16.27-4.85-24.72a10.22,10.22,0,0,0-2.13-5.57c-3.77-4.71-7.41-9.53-11.29-14.15a144.3,144.3,0,0,1-21.68-34.18C768.43,501,763.27,489.37,759,477.38c-3.19-9-6.66-17.95-12.4-25.6-4.43-5.91-6.77-12.33-6.3-19.36.67-10.19-2.42-19.26-7.31-27.65-4.34-7.43-8.44-15-12.53-22.53a194.44,194.44,0,0,0-30.86-42.41c-7.28-7.57-15.56-14.17-21.8-22.74-1.1-1.51-2.13-1-3.15.1-2.84,3-5.65,6-8.53,8.92-2.61,2.66-4.78,5.66-7.1,8.55s-5.17,4.9-7.63,7.49C624.2,360.26,606,377.44,590.35,397c-3.36,4.22-8,6.17-12.85,8-2.36.89-4.22,2-5.1,4.81a7.13,7.13,0,0,1-4.78,4.87,7.72,7.72,0,0,0-3.89,2.3c-5.13,5.34-10.37,10.59-15.38,16-6.65,7.23-14.54,13.09-21.54,19.91-14.08,13.72-27.82,27.8-41.8,41.62-15.81,15.62-31.76,31.1-47.6,46.69q-32.94,32.44-65.82,65c-2.36,2.33-2.34,2.35.83,3.59,5.38,2.11,6.61,7.59,2.65,11.84C374.65,622.13,374,622.47,374.08,623.53ZM632,700.22l-.06-.49q-37.32-7.72-74.63-15.48c-17.9-3.76-35.73-7.82-53.65-11.44-21.32-4.31-42.48-9.36-63.84-13.49-10.85-2.1-21.56-4.87-32.36-7.24-12.86-2.83-25.73-5.56-38.6-8.32-8.67-1.86-17.35-3.69-26-5.58-2.2-.48-2.87.26-2.87,2.49,0,6-.07,12.05-.31,18.08-.5,12.6-.51,25.22-.69,37.83-.05,3.61,0,3.56,3.47,3.63,1.73,0,3.45.33,5.18.41,11.7.55,23.4-.14,35.1.4,8.11.37,16.25-.41,24.37.05s16.07-.84,24.1-.84c26.42,0,52.84-.24,79.25.42,7.32.19,14.63-.38,21.94-.41,24.15-.06,48.31,0,72.47,0Zm3.17-3.56,0-.16a2,2,0,0,0,.54,0,3.18,3.18,0,0,0,2.94-2.82c.11-1.74-1.51-.49-2.3-.78-1.75-.65-3.47-1.45-4.15-3.28s.14-3.31,1.51-4.65c.83-.81,2.41-1.45,1.73-3.06s-2.14-1.59-3.47-1.85c-12.74-2.5-25.49-4.93-38.21-7.49-21.23-4.26-42.47-8.5-63.66-13-7.23-1.54-14.56-2.48-21.76-4.15-9.17-2.13-18.27-4.55-27.59-6-2-.3-4,.62-5.86-.79a8.18,8.18,0,0,0-4.89-1.6c-5.86-.15-11.51-1.75-17.09-3.16-10.37-2.63-20.84-4.79-31.33-6.77-7.46-1.42-15-2.71-22.3-4.54-12.5-3.13-25.19-5.21-37.77-7.86-3-.63-6.27-.2-9-2.14-.44-.32-8.25,2.71-8.45,3.22a3,3,0,0,0-.19,1.07,7.83,7.83,0,0,1-2.25,5.44c-1.28,1.41-.54,1.77.9,2a126.57,126.57,0,0,1,15.29,3.08c9.52,2.58,19.29,4,28.89,6.33,18.31,4.37,36.79,8,55.17,12.15,4.39,1,9.15.56,13.18,2.3,5.95,2.58,12.34,3.53,18.43,4.76,14.6,2.94,29.19,6,43.76,9,15.19,3.18,30.52,5.66,45.58,9.47,17.5,4.44,35.49,6.55,53,11.11C622.22,694.23,628.73,695.31,635.18,696.66ZM575.31,391.09c-3.51.7-3.85,1.16-5.06,4s-3,4.91-6.16,5.56a4.34,4.34,0,0,0-2.46,1.61c-7,8.34-15.72,15-22.81,23.33-3.26,3.81-7,7.26-10,11.28-.78,1-1.73,2.63-3.3,1.46s-2.4-.45-3.46.59q-7.26,7.09-14.57,14.14c-18.73,18-37.59,35.85-56.18,54-14.85,14.48-30.28,28.36-44.64,43.34-4.26,4.44-9.4,7.8-13.74,12.15-7,7.06-14.34,13.84-21.56,20.71q-14.7,14-29.44,27.94c-.91.87-1.63,1.88-1.09,3.15a2.78,2.78,0,0,0,3.19,1.58,3.7,3.7,0,0,1,3.49,1.22c1.82,2.45,4.18-.12,6.1.87.15.07.74-.32.85-.6.68-1.73,2.38-2.13,3.72-3s3.13-1.61,4.14-3.1a55.13,55.13,0,0,1,7.53-8.68c15.15-14.44,29.48-29.72,44.91-43.9C421.7,552.32,428.31,545.6,435,539c7.13-7.06,14-14.36,21.31-21.24,6.65-6.27,13.05-12.79,19.56-19.2,8.73-8.6,17.36-17.3,26-26,7.75-7.76,15.52-15.51,23.38-23.17.68-.65,1.88-1.25,1.38-2.44-.87-2.11.44-3.28,1.72-4.46,1.54-1.43,3.13-2.8,4.73-4.18,9.29-8,17.3-17.33,26.48-25.45a5.85,5.85,0,0,0,2.15-2.78c.83-3.06,3.27-4.62,5.85-6,.79-.42,1.84-.41,2.34-1.3A79.21,79.21,0,0,0,575.31,391.09ZM332.55,642.58h.18c0-1.37-.08-2.75,0-4.11a2.59,2.59,0,0,0-2.11-3.07,47.76,47.76,0,0,0-9.17-1.22c-1.82,0-3.36.06-4.82-1.15-.69-.58-1.67-1.11-2.45-.18-2.53,3-5.87,2.8-9.24,2.37-1.39-.17-2.1.18-2.2,1.62-.13,2-.43,4-.44,6,0,14.16-.15,28.31-.64,42.46-.37,10.86.28,21.74-.54,32.6-.26,3.42,1.32,4.54,4.54,3.1,3.83-1.72,7.53-3.71,11.27-5.62,1.37-.71,1.9-1.72.79-3.09-.56-.69-.95-1.48-.38-2.25a5.87,5.87,0,0,0,.81-5.2c-.33-1.39.12-2.1,1.53-1.07,1.1.8,2.5.88,2.68-.38.45-3.12,2.39-2.16,4.34-2.36,1.8-.17,4.76.65,4.82-2.86Q332,670.39,332.55,642.58Zm797.5,56.61c.22,1,1,1.08,1.49,1.33,3.32,1.51,6.72,2.87,10,4.49,4.15,2,7.75,4.63,7.41,10.06,0,.62-.06,1.58.61,1.66,1.94.23,3,2.06,4.83,2.45a4.9,4.9,0,0,1,3.86,3.53c.51,1.78,1.66,2.16,3.32,2a14.43,14.43,0,0,1,8.73,1.77,4.33,4.33,0,0,0,2.11.4c8.77.19,17.55.31,26.32,0,.83,0,1.82.17,2.36-1-.53-.26-.92-.48-1.33-.66-8.29-3.6-16.54-7.28-24.88-10.75-7.57-3.16-14.79-7.18-22.77-9.35-1.13-.31-1.63-1.26-2.29-2.18-1.41-2-3-4.38-5.39-4.67A46.05,46.05,0,0,0,1130.05,699.19ZM572.81,403.64l.46.43q6.43-3.54,12.88-7.1c1.3-.72,1.47-1.63.65-2.92-1.48-2.35-3.88-3.54-6-5-1-.7-1.46.21-1.8,1C576.9,394.54,574.86,399.1,572.81,403.64Zm-3-14.13c1.6.18,2.5-.71,3.54-1.17a51.42,51.42,0,0,0,7.93-4.76c1.6-1.1,3.36-2.08,2.89-4.44-.25-1.27-5-4.76-6.18-4.56a1.62,1.62,0,0,0-1,.79C574.57,380,572.22,384.7,569.79,389.51Z"/></svg>