<svg id="Layer_1" data-name="Layer 1" xmlns="http://www.w3.org/2000/svg" viewBox="0 0 1500 1500"><defs><style>.cls-1{fill:#fff;}.cls-2{fill:none;stroke:#fff;stroke-miterlimit:10;stroke-width:5.18px;}</style></defs><path class="cls-1" d="M274,981.92c0,22-17.15,36.36-41.58,36.36h-24v60.78H191.94V947.79h40.47C256.84,947.79,274,959.92,274,981.92Zm-45.13,28.9c19.58,0,28-14.36,28-28.9s-8.4-26.66-28-26.66h-20.5v55.56Z"/><path class="cls-1" d="M316.51,1079.06h-16.4V947.79h16.4Z"/><path class="cls-1" d="M365.56,955.26v53.5h38.23v7.46H365.56v55.38h64.89v7.46h-81.3V947.79h81.3v7.47Z"/><path class="cls-1" d="M586.72,1079.06l-9.14-11c-9.32,8.4-21.82,13.24-37.29,13.24-31.33,0-47.37-15.84-47.37-37.48,0-17.34,10.64-31.51,30-41.4-4.29-4.84-14.36-17.52-14.36-28.33,0-15.3,10.44-27.79,30.39-27.79,20.14,0,30.4,9.89,30.4,25.73,0,17.72-10.26,25.93-24.62,31l38.42,45.68c5-9.7,7.83-21.63,7.83-34.87h7.46c0,15.48-3.36,29.65-10.07,41l20.32,24.24Zm-14-16.59-45.12-53.89c-10.07,5.22-15.29,17.34-15.29,31.14,0,18.84,9.51,34.12,28,34.12C553.34,1073.84,564.35,1069.92,572.73,1062.47Zm-48.66-92.68c0,9.14,9.32,20.7,15.1,26.86.56,0,22.75-4.1,22.75-24.62,0-9.88-6.71-18.27-21.63-18.27C530,953.76,524.07,962.89,524.07,969.79Z"/><path class="cls-1" d="M760.71,1071.6v7.46h-81.3V947.79h16.41V1071.6Z"/><path class="cls-1" d="M772.46,1079.06l51.66-134.25h4.28l51.47,134.25H862.34l-15.48-40.27H796.33l-15.48,40.27Zm26.67-47.73h44.75L821.5,972.78Z"/><path class="cls-1" d="M973.86,955.26H930.41v123.8H914V955.26H870.55v-7.47H973.86Z"/><path class="cls-1" d="M1087.24,955.26h-43.45v123.8h-16.41V955.26H983.94v-7.47h103.3Z"/><path class="cls-1" d="M1122.68,955.26v53.5h38.22v7.46h-38.22v55.38h64.89v7.46h-81.31V947.79h81.31v7.47Z"/><path class="cls-1" d="M1243.14,1001.68c20.89,4.66,43.82,9.88,43.82,40.09,0,22.38-20,40.28-44.75,40.28-15.48,0-29.28-7.09-37.29-17.72l5.41-5.41c6.52,9.33,18.45,15.67,31.88,15.67,12.12,0,33.93-7.46,33.93-26.85,0-19-18.45-24-37.66-28.72-19-4.66-37.85-10.81-37.85-36.92,0-20.51,18.65-37.29,41.58-37.29,14,0,26.48,6.34,33.93,15.84l-5.21,5.41c-6.16-8.38-16.78-13.79-28.72-13.79-9.14,0-30.21,5.21-30.21,23.68C1212,991.8,1225.61,997.76,1243.14,1001.68Z"/><path class="cls-1" d="M470.09,1166.86c0,7.59-5.65,12.54-13.71,12.54h-7.94v21H443v-45.28h13.35C464.44,1155.09,470.09,1159.27,470.09,1166.86Zm-14.88,10c6.46,0,9.23-5,9.23-10s-2.77-9.2-9.23-9.2h-6.77v19.17Z"/><path class="cls-1" d="M547.12,1200.37h-5.41v-45.28h5.41Z"/><path class="cls-1" d="M647.7,1197.79v2.58H620.88v-45.28h5.41v42.7Z"/><path class="cls-1" d="M714.57,1200.37l17-46.31H733l17,46.31h-5.78l-5.11-13.89H722.44l-5.1,13.89Zm8.79-16.47h14.77l-7.38-20.19Z"/><path class="cls-1" d="M844,1157.66H829.67v42.71h-5.42v-42.71H809.92v-2.57H844Z"/><path class="cls-1" d="M918.69,1157.66v18.46H931.3v2.57H918.69v19.1h21.4v2.58H913.27v-45.28h26.82v2.57Z"/><path class="cls-1" d="M1021.42,1173.68c6.89,1.61,14.46,3.41,14.46,13.82,0,7.72-6.58,13.9-14.76,13.9a15.18,15.18,0,0,1-12.31-6.11l1.79-1.87a12.66,12.66,0,0,0,10.52,5.41c4,0,11.19-2.58,11.19-9.27s-6.09-8.3-12.43-9.9-12.48-3.73-12.48-12.73c0-7.08,6.15-12.87,13.72-12.87a14,14,0,0,1,11.19,5.47l-1.72,1.86a11.54,11.54,0,0,0-9.47-4.76c-3,0-10,1.81-10,8.17C1011.15,1170.27,1015.64,1172.32,1021.42,1173.68Z"/><line class="cls-2" x1="443.03" y1="1273.41" x2="1037.91" y2="1273.41"/><path class="cls-1" d="M615.94,226.59a5.94,5.94,0,0,1,2.44,2.79c.47,1.63,1.08,2.73,3.06,1.83.35-.15,1.15-.06,1.28.18,1.42,2.54,4.32,2.35,6.39,3.6a41.18,41.18,0,0,1,11.65,9.82c4.57,6,10.81,10,16.12,15.08.66.63,1.64,1.15,1.9,1.91,1.76,5.15,5.92,7.18,10.66,8.64,11.84,3.65,15,7.73,15.84,20.34.25,3.83-.63,7.77,1.26,11.44a11.45,11.45,0,0,0,1.89,3.21c16.16,15.9,32,32.19,49.11,47,14.78,12.82,23.89,28.78,29.17,47.33,3.35,11.73,7.32,23.28,10.56,35,2.91,10.59,8.69,19.3,16.27,26.91,7.89,7.92,16,15.57,24.07,23.35a142.18,142.18,0,0,1,22.22,27.26,122.32,122.32,0,0,0,34.26,35.87,100.78,100.78,0,0,1,22.66,22.17c6.12,8.19,8.89,17.51,9.77,27.66,1.23,14.1-2,27.09-8.2,39.63A94.18,94.18,0,0,0,890,662.94c-4.17,23.32-14.69,43.64-29.25,62.09-1.39,1.75-4.35,3.31-3.07,5.93s4.38,1.26,6.58,1.17c15.85-.61,31,3.49,46.24,6.81,4,.88,8,1.82,12.15,1.62,9.25-.45,18.45,1.12,27.69.73,2.43-.11,4.18,1.66,6.52,1.84,8.73.66,17.47,1.34,26.18,2.27,5.48.59,10.88,1.22,15.59,5,2.44,1.94,6.16,2,9.41,2.5,2,.28,3.75.57,5,2.42a5.23,5.23,0,0,0,3.86,2c3.61.24,6.77,2,10.21,2.72,2.65.59,5.37.62,6,4.61.39,2.38,3.74,3.06,6.11,3.86A109,109,0,0,1,1061,779.08c1.43.86,2.54,2,2.46,3.82a2.58,2.58,0,0,0,1.71,2.69c1.18.47,1.38-.9,2-1.43,4.81-3.87,9-8.4,13.36-12.73a5.82,5.82,0,0,1,6.35-1.29c7.42,2.45,13.9,6.33,18.25,13.05,1.38,2.12,3,3.28,5.62,3.06,1.82-.15,3.66.07,5.47-.1,2.44-.22,3.86-1.58,3.27-4.13a25.79,25.79,0,0,1-.42-6.12c.05-5.32,2.75-8.52,8.08-8.6,12.89-.2,25.8-.36,38.68.06,5.37.18,10,3.64,14.87,5.82,3.13,1.4,6,2.18,9.52,1.53a200,200,0,0,1,40.13-3.47,7.3,7.3,0,0,0,4-.81c3.49-2,7-1.9,10.83-.63,18.12,5.92,35.57,13.61,53.43,20.21,13.59,5,26.89,10.77,40.37,16.06,5.86,2.3,9.65,5.77,11,11.86v2.74a17.67,17.67,0,0,1-1.24,3.52c-2.84,4.65-5.5,9.14-12.06,9.78-3,.29-5.47-1.37-8.24-.77-18.2,3.92-36.61,4.72-55.14,3.77-1.77-.09-2.27.67-2.67,2.27-2,8.3-7.78,13.77-16.26,13.37-5.08-.24-8.09,1.23-11.19,4.65-2.19,2.41-4.54,4.5-4.56,8,0,2-1.07,2.8-3,2.77-4.57-.1-9.12.42-13.67.44-35.59.1-71.18.1-106.76.81-7.17.15-14.35.09-21.54-.32-4.09-.23-7.39-2.78-11.69-2.36-8.68.86-17.6-1.16-26.1,2.14-27.26.27-54.52-.17-81.79.42s-54.77.09-82.16.18c-16.85.06-33.71.87-50.54.33-13.66-.44-27.29.25-40.94.06-11.69-.17-23.4-.55-35.11-.3-17.43.36-34.87-.06-52.31.38-21,.54-42,0-63,.66-24,.73-48.13.17-72.2.76-22.79.57-45.6.42-68.4.21-9-.09-17.91,1.76-26.94,1.22-5.33-.31-10.57-1.62-16-1.14-4.08.37-8.2.36-12.3.36q-73.61,0-147.21,0c-24.41,0-48.82.08-73.24,0-20.89-.09-41.82,1-62.63-1.91-1.39-.2-3-.08-2.87-2.07s1.59-2,3-2.06c3.62-.29,7.12.26,10.72-2,3.8-2.35,5-3.45,4-8.41-.37-1.77-1.06-2.65-2.9-2.57-8.87.39-17.79-.71-26.63,1-4.6.86-6.39-.66-6.27-5.48.32-11.9-1.55-24,2.52-35.61.48-1.37,1-3.33,2.46-2.12,2.67,2.23,5.15,2.86,8.27,1.46.28-.12.82.3,1.23.49,3.33,1.55,3.88,1.14,4.21-2.32,1-10.8.73-21.65.89-32.45.34-23.71.87-47.42,1.14-71.13,0-2.41.09-4.55-2.48-6.18-2.21-1.41-2.22-4.7-.44-5,2.43-.43,2.87-1.78,3-3.74a3,3,0,0,1,3.38-3.09c2.51,0,6-1.19,7,1.9,1.11,3.49,2.8,4.58,6.13,4.07a2.62,2.62,0,0,1,2,.34c2.32,2.49,4.78,2.3,7.84,1.4,1.54-.46,2.78-.56,3.28-2.19.36-1.18,1.09-1.61,2.26-2.14,3.81-1.72,7.82-3.23,10.84-6.29,3.69-3.73,6.73-8,11-11.32,6-4.73,11.07-10.5,16.66-15.71,17.82-16.64,35.47-33.46,53.16-50.23Q313.66,590.3,332.85,572q24.25-23.14,48.46-46.35c12.91-12.39,25.84-24.76,38.62-37.28,5.28-5.17,10.54-10.4,15.89-15.46,5.61-5.31,11.33-10.54,16.8-16,4.51-4.5,8.3-9.71,12.68-14.35,10-10.61,20.84-20.44,31.53-30.38,1.31-1.22,2.85-2.28,3.32-4.22,1-4.12,4-6.5,7.71-7.83a6.27,6.27,0,0,0,4-3.34c2.65-5.43,5.39-10.82,8.12-16.21,1-2.05,2-4.32,4-5.42,2.74-1.52,4.73-3.67,6.91-5.82Q547.72,352.8,564,335.73c16.56-17.3,33.33-34.41,50-51.57,4.22-4.34,4.49-4.45,1.22-9.31s-5.31-10.33-9.6-14c-3.46-3-5.7-6.73-8.55-10.07-1.75-2.06-2.73-4.75-1-7.27s4.09-1.79,6.49-.92c1.64.59,3.38.46,3.62-1.77.26-2.49.46-5.08-.93-7.34-.94-1.51-2.06-2.87-.46-4.54s3.32-2.19,5.27-1.14,3.21.11,4.46-1.17Zm-345.72,465c10,1.66,19.79,4,29.59,6.12,21.69,4.75,43.46,9.16,65.19,13.75,17.58,3.71,35.15,7.52,52.74,11.21,11.49,2.42,23,4.71,34.5,7.08,18.2,3.75,36.3,8.14,54.63,11.12,22.41,3.65,44.41,9.15,66.68,13.42,6.72,1.29,13.4,2.77,20.1,4.15,1.36.28,2.83.59,3.33-1.3.64-2.42,2.72-2.93,4.68-3.45,4.83-1.29,5.06-2.67,2-6.48-8.67-10.93-9.85-18.09-.45-29.92,5.08-6.4,11.57-11.27,18.21-15.92,2.22-1.56,4-3.82,6.76-4.56,8.4-2.24,16.45-5.75,25.26-6.59,3.73-.35,7.31-.6,10.57,1.48,3.93,2.51,7.87,1.89,11.76.14a53.59,53.59,0,0,0,5.6-3.29c4.05-2.48,6.56-1.5,7.3,3.13.45,2.81,1.2,4.84,4.6,4.55,1.34-.12,2.18,1,3.25,1.63,1.75,1,4.28,2.51,5.53,0a14.6,14.6,0,0,1,5.31-5.59c5.79-4.05,16.11-1.15,18.33,5.26,1.86,5.37,3.21,10.9,4.81,16.36.3,1,0,2.61,1.34,2.86s1.9-1.09,2.59-2a140.23,140.23,0,0,0,13.68-20.85c4.19-8,8.28-16,15.08-22.22,9.23-8.5,20.45-9.48,30.56-2.25a8.57,8.57,0,0,0,7.4,1.44c4.69-1.09,8.76-3.88,13.53-4.72.93-.16,1.28-1.18,1.88-1.84,3.58-4,2.42-8.54,1.54-13-2-10.27-5.26-20.29-6-30.83a12.75,12.75,0,0,0-2.64-6.93c-4.71-5.88-9.25-11.89-14.08-17.65a179.24,179.24,0,0,1-27-42.62c-6.43-14.49-12.87-29-18.17-43.92-4-11.21-8.31-22.39-15.46-31.91-5.53-7.37-8.44-15.39-7.86-24.15.84-12.7-3-24-9.11-34.48-5.41-9.26-10.52-18.67-15.63-28.08a242.56,242.56,0,0,0-38.46-52.89c-9.09-9.42-19.41-17.66-27.19-28.34-1.37-1.89-2.65-1.21-3.92.12-3.55,3.71-7.06,7.46-10.65,11.13-3.24,3.31-6,7.05-8.85,10.65-2.76,3.43-6.44,6.12-9.5,9.34-21.47,22.58-44.2,44-63.67,68.45-4.19,5.26-10,7.69-16,10-3,1.12-5.27,2.55-6.36,6a8.91,8.91,0,0,1-6,6.08,9.51,9.51,0,0,0-4.84,2.86c-6.41,6.66-12.94,13.2-19.19,20-8.29,9-18.13,16.32-26.85,24.82C443.08,496,426,513.56,408.52,530.8c-19.71,19.47-39.6,38.77-59.34,58.21q-41.08,40.46-82.07,81c-2.94,2.91-2.91,2.93,1,4.48,6.72,2.63,8.24,9.47,3.31,14.77C270.93,689.82,270.16,690.24,270.22,691.56ZM591.8,787.18l-.07-.61c-31-6.43-62.05-12.8-93.05-19.31-22.32-4.68-44.55-9.75-66.9-14.26-26.58-5.37-53-11.67-79.59-16.82-13.52-2.62-26.89-6.07-40.35-9-16-3.52-32.08-6.92-48.13-10.37-10.81-2.32-21.62-4.59-32.43-6.95-2.74-.6-3.57.32-3.57,3.1,0,7.51-.09,15-.39,22.54-.63,15.71-.63,31.44-.86,47.17-.06,4.49,0,4.44,4.33,4.52,2.15.05,4.3.41,6.46.51,14.58.68,29.18-.17,43.77.5,10.11.47,20.25-.51,30.38.07s20-1,30.05-1c32.94,0,65.87-.31,98.81.53,9.12.23,18.23-.49,27.35-.51,30.11-.09,60.23,0,90.35,0Zm4-4.44,0-.21a2.67,2.67,0,0,0,.68.07,4,4,0,0,0,3.66-3.51c.14-2.18-1.89-.61-2.87-1-2.18-.81-4.32-1.81-5.18-4.09s.18-4.13,1.89-5.79c1-1,3-1.82,2.16-3.82-.76-1.83-2.67-2-4.33-2.31C575.92,759,560,756,544.16,752.77c-26.47-5.32-52.95-10.6-79.37-16.21-9-1.91-18.15-3.09-27.13-5.17-11.43-2.65-22.78-5.67-34.4-7.48-2.43-.37-5,.78-7.31-1a10.18,10.18,0,0,0-6.09-2c-7.31-.19-14.36-2.18-21.31-3.94-12.93-3.28-26-6-39.07-8.44-9.29-1.76-18.64-3.37-27.8-5.66-15.58-3.9-31.4-6.49-47.08-9.8-3.73-.79-7.82-.25-11.19-2.67-.55-.39-10.29,3.39-10.54,4a3.72,3.72,0,0,0-.23,1.33,9.83,9.83,0,0,1-2.81,6.79c-1.6,1.76-.67,2.21,1.12,2.46A160.94,160.94,0,0,1,250,708.86c11.87,3.22,24,5,36,7.89,22.84,5.46,45.88,10,68.8,15.16,5.47,1.22,11.4.69,16.43,2.87,7.42,3.2,15.38,4.4,23,5.93,18.2,3.66,36.38,7.46,54.55,11.27,18.94,4,38.06,7,56.83,11.81,21.82,5.53,44.25,8.16,66,13.84C579.6,779.7,587.72,781.06,595.75,782.74Zm-74.64-381c-4.38.87-4.81,1.44-6.31,5s-3.81,6.12-7.68,6.93a5.4,5.4,0,0,0-3.07,2c-8.75,10.41-19.6,18.76-28.43,29.09-4.08,4.76-8.68,9.06-12.48,14.07-1,1.29-2.15,3.28-4.11,1.82s-3-.56-4.32.74q-9,8.85-18.16,17.63c-23.35,22.43-46.86,44.69-70,67.3-18.52,18-37.76,35.35-55.66,54-5.31,5.54-11.73,9.73-17.13,15.15-8.76,8.81-17.89,17.26-26.89,25.82q-18.33,17.45-36.7,34.84c-1.14,1.08-2,2.35-1.36,3.93a3.47,3.47,0,0,0,4,2,4.57,4.57,0,0,1,4.34,1.52c2.28,3.06,5.22-.16,7.62,1.08.18.1.91-.39,1-.74.85-2.16,3-2.66,4.64-3.78s3.9-2,5.17-3.87A68.09,68.09,0,0,1,265,665.46c18.89-18,36.76-37.07,56-54.74,8.64-7.94,16.89-16.32,25.23-24.58,8.89-8.8,17.48-17.91,26.57-26.48,8.29-7.82,16.27-15.95,24.39-23.94C408,525,418.77,514.15,429.56,503.34c9.66-9.67,19.35-19.34,29.15-28.88.85-.82,2.33-1.56,1.72-3-1.09-2.63.54-4.09,2.14-5.57,1.92-1.78,3.91-3.49,5.89-5.2,11.59-10,21.58-21.61,33-31.73a7.36,7.36,0,0,0,2.67-3.46c1-3.82,4.08-5.77,7.3-7.47,1-.52,2.3-.51,2.91-1.61A98.22,98.22,0,0,0,521.11,401.76ZM218.44,715.31h.22c0-1.71-.1-3.43,0-5.13.15-2-.77-3.47-2.62-3.82a60.23,60.23,0,0,0-11.44-1.52c-2.27,0-4.19.07-6-1.44-.86-.71-2.08-1.37-3.05-.22-3.16,3.76-7.33,3.49-11.52,3-1.74-.22-2.62.22-2.74,2-.17,2.49-.55,5-.55,7.48,0,17.65-.19,35.3-.8,52.94-.47,13.54.34,27.1-.68,40.64-.32,4.27,1.65,5.66,5.66,3.86,4.78-2.13,9.39-4.62,14-7,1.72-.87,2.37-2.14,1-3.84-.69-.86-1.19-1.85-.48-2.8a7.33,7.33,0,0,0,1-6.49c-.41-1.74.14-2.62,1.91-1.34,1.36,1,3.12,1.1,3.34-.47.55-3.89,3-2.69,5.41-2.94,2.25-.22,5.93.8,6-3.56Q217.8,750,218.44,715.31Zm994.32,70.59c.27,1.22,1.18,1.34,1.85,1.65,4.14,1.88,8.38,3.57,12.46,5.59,5.17,2.57,9.66,5.78,9.22,12.55,0,.77-.07,2,.78,2.07,2.41.29,3.7,2.56,6,3a6.11,6.11,0,0,1,4.81,4.4c.64,2.23,2.07,2.7,4.14,2.56,3.8-.24,7.5.14,10.88,2.2a5.5,5.5,0,0,0,2.64.51c10.94.23,21.87.38,32.81,0,1,0,2.27.21,2.94-1.26-.65-.33-1.14-.6-1.65-.82-10.34-4.49-20.63-9.08-31-13.41-9.43-3.94-18.43-9-28.38-11.66-1.42-.38-2-1.57-2.85-2.71-1.77-2.45-3.72-5.46-6.73-5.82A56.9,56.9,0,0,0,1212.76,785.9ZM518,417.4l.58.54q8-4.43,16.06-8.85c1.62-.9,1.82-2,.8-3.65-1.84-2.92-4.83-4.41-7.53-6.26-1.27-.87-1.81.26-2.24,1.21Q521.81,408.9,518,417.4Zm-3.76-17.62c2,.22,3.11-.88,4.41-1.46a64,64,0,0,0,9.89-5.93c2-1.37,4.18-2.59,3.6-5.54-.31-1.59-6.26-5.94-7.71-5.69a2.06,2.06,0,0,0-1.26,1C520.19,388,517.26,393.78,514.23,399.78Z"/></svg>