<svg id="Layer_1" data-name="Layer 1" xmlns="http://www.w3.org/2000/svg" viewBox="0 0 1500 1500"><defs><style>.cls-1{fill:#fad6ce;}.cls-2{fill:#00262f;}.cls-3{stroke:#000;stroke-miterlimit:10;stroke-width:6.26px;}</style></defs><rect class="cls-1" x="2.9" y="-0.79" width="1500" height="1500"/><path class="cls-2" d="M239.47,957.73c0,22.54-17.57,37.24-42.59,37.24H172.25v62.25H155.44V922.77h41.44C221.9,922.77,239.47,935.19,239.47,957.73Zm-46.22,29.6c20.05,0,28.65-14.71,28.65-29.6s-8.6-27.31-28.65-27.31h-21v56.91Z"/><path class="cls-2" d="M283,1057.22h-16.8V922.77H283Z"/><path class="cls-2" d="M333.25,930.42v54.81H372.4v7.63H333.25v56.73h66.46v7.63H316.45V922.77h83.26v7.65Z"/><path class="cls-2" d="M559.76,1057.22,550.4,1046c-9.54,8.61-22.34,13.56-38.19,13.56-32.09,0-48.51-16.22-48.51-38.39,0-17.75,10.89-32.26,30.75-42.39-4.4-5-14.71-18-14.71-29,0-15.67,10.7-28.46,31.13-28.46,20.63,0,31.13,10.13,31.13,26.35,0,18.15-10.5,26.55-25.21,31.71l39.35,46.79c5.15-9.93,8-22.16,8-35.72h7.63c0,15.86-3.43,30.37-10.31,42l20.82,24.83Zm-14.32-17L499.23,985c-10.32,5.34-15.67,17.75-15.67,31.89,0,19.29,9.74,35,28.65,35C525.58,1051.88,536.85,1047.86,545.44,1040.23Zm-49.85-94.92c0,9.36,9.55,21.2,15.47,27.51.57,0,23.3-4.21,23.3-25.22,0-10.11-6.87-18.71-22.15-18.71C501.7,928.89,495.59,938.24,495.59,945.31Z"/><path class="cls-2" d="M738,1049.59v7.63H654.69V922.77H671.5v126.82Z"/><path class="cls-2" d="M750,1057.22l52.9-137.5h4.39L860,1057.22h-18L826.2,1016H774.44l-15.85,41.24Zm27.31-48.89h45.83l-22.92-60Z"/><path class="cls-2" d="M956.26,930.42H911.77v126.8H895V930.42h-44.5v-7.65h105.8Z"/><path class="cls-2" d="M1072.39,930.42h-44.5v126.8h-16.81V930.42H966.59v-7.65h105.8Z"/><path class="cls-2" d="M1108.68,930.42v54.81h39.15v7.63h-39.15v56.73h66.46v7.63h-83.27V922.77h83.27v7.65Z"/><path class="cls-2" d="M1232.06,978c21.39,4.78,44.88,10.12,44.88,41.06,0,22.92-20.43,41.25-45.83,41.25-15.85,0-30-7.26-38.2-18.14l5.54-5.55c6.68,9.56,18.91,16.06,32.66,16.06,12.41,0,34.75-7.65,34.75-27.51,0-19.47-18.9-24.63-38.57-29.41-19.48-4.78-38.77-11.08-38.77-37.81,0-21,19.1-38.2,42.59-38.2,14.32,0,27.12,6.5,34.75,16.23l-5.34,5.54c-6.3-8.59-17.19-14.13-29.41-14.13-9.36,0-30.94,5.34-30.94,24.26C1200.17,967.85,1214.11,974,1232.06,978Z"/><path class="cls-2" d="M376.54,1188.76c0,9.18-6.84,15.16-16.59,15.16h-9.59v25.35h-6.54v-54.74H360C369.7,1174.53,376.54,1179.59,376.54,1188.76Zm-18,12c7.81,0,11.16-6,11.16-12s-3.35-11.12-11.16-11.12h-8.18v23.17Z"/><path class="cls-2" d="M469.65,1229.27h-6.54v-54.74h6.54Z"/><path class="cls-2" d="M591.24,1226.16v3.11H558.82v-54.74h6.55v51.63Z"/><path class="cls-2" d="M672.09,1229.27l20.6-56h1.71l20.52,56h-7l-6.17-16.8H681.61l-6.17,16.8Zm10.63-19.9h17.85L691.65,1185Z"/><path class="cls-2" d="M828.56,1177.64H811.24v51.63h-6.55v-51.63H787.37v-3.11h41.19Z"/><path class="cls-2" d="M918.86,1177.64V1200H934.1v3.11H918.86v23.09h25.87v3.11H912.31v-54.74h32.42v3.11Z"/><path class="cls-2" d="M1043.05,1197c8.33,1.94,17.48,4.11,17.48,16.71,0,9.33-8,16.8-17.85,16.8a18.35,18.35,0,0,1-14.87-7.39l2.16-2.26a15.31,15.31,0,0,0,12.71,6.54c4.84,0,13.54-3.12,13.54-11.21,0-7.92-7.37-10-15-12s-15.09-4.51-15.09-15.39c0-8.55,7.44-15.55,16.58-15.55a16.94,16.94,0,0,1,13.54,6.61l-2.09,2.25a13.92,13.92,0,0,0-11.45-5.76c-3.64,0-12,2.19-12,9.88C1030.63,1192.88,1036.07,1195.37,1043.05,1197Z"/><line class="cls-3" x1="343.82" y1="1317.57" x2="1062.99" y2="1317.57"/><path class="cls-2" d="M615.94,182.43a6,6,0,0,1,2.44,2.78c.47,1.64,1.08,2.74,3.06,1.84.35-.16,1.15-.06,1.28.18,1.42,2.53,4.32,2.34,6.39,3.6a41.18,41.18,0,0,1,11.65,9.82c4.57,6,10.81,10,16.12,15.08.66.63,1.64,1.15,1.9,1.91,1.76,5.15,5.92,7.18,10.66,8.64,11.84,3.65,15,7.73,15.84,20.34.25,3.83-.63,7.77,1.26,11.44a11.26,11.26,0,0,0,1.89,3.2c16.16,15.91,32,32.2,49.11,47.05,14.78,12.82,23.89,28.78,29.17,47.33,3.35,11.73,7.32,23.28,10.56,35,2.91,10.59,8.69,19.3,16.27,26.91,7.89,7.92,16,15.57,24.07,23.35a142.12,142.12,0,0,1,22.22,27.25,122.23,122.23,0,0,0,34.26,35.88,100.57,100.57,0,0,1,22.66,22.17c6.12,8.19,8.89,17.51,9.77,27.66,1.23,14.1-2,27.09-8.2,39.63A94.11,94.11,0,0,0,890,618.77c-4.17,23.33-14.69,43.65-29.25,62.1-1.39,1.75-4.35,3.31-3.07,5.93s4.38,1.25,6.58,1.17c15.85-.61,31,3.49,46.24,6.81,4,.88,8,1.81,12.15,1.61,9.25-.44,18.45,1.13,27.69.73,2.43-.1,4.18,1.67,6.52,1.84,8.73.67,17.47,1.35,26.18,2.28,5.48.59,10.88,1.21,15.59,5,2.44,1.94,6.16,2,9.41,2.5,2,.28,3.75.57,5,2.41a5.21,5.21,0,0,0,3.86,2c3.61.24,6.77,1.94,10.21,2.72,2.65.59,5.37.62,6,4.61.39,2.38,3.74,3.06,6.11,3.86A108.42,108.42,0,0,1,1061,734.92c1.43.86,2.54,2,2.46,3.82a2.59,2.59,0,0,0,1.71,2.69c1.18.47,1.38-.91,2-1.43,4.81-3.87,9-8.4,13.36-12.73a5.84,5.84,0,0,1,6.35-1.3c7.42,2.46,13.9,6.34,18.25,13,1.38,2.13,3,3.28,5.62,3.07,1.82-.15,3.66.07,5.47-.1,2.44-.22,3.86-1.59,3.27-4.14a25.72,25.72,0,0,1-.42-6.12c.05-5.31,2.75-8.51,8.08-8.59,12.89-.21,25.8-.37,38.68.06,5.37.17,10,3.63,14.87,5.82,3.13,1.4,6,2.18,9.52,1.53a199.23,199.23,0,0,1,40.13-3.47,7.22,7.22,0,0,0,4-.82c3.49-2,7-1.89,10.83-.63,18.12,5.93,35.57,13.62,53.43,20.22,13.59,5,26.89,10.77,40.37,16,5.86,2.3,9.65,5.78,11,11.87v2.74a17.67,17.67,0,0,1-1.24,3.52c-2.84,4.64-5.5,9.14-12.06,9.78-3,.29-5.47-1.37-8.24-.78-18.2,3.93-36.61,4.73-55.14,3.78-1.77-.09-2.27.66-2.67,2.27-2,8.3-7.78,13.76-16.26,13.36-5.08-.24-8.09,1.24-11.19,4.66-2.19,2.41-4.54,4.5-4.56,8,0,2-1.07,2.8-3,2.76-4.57-.09-9.12.43-13.67.44-35.59.1-71.18.11-106.76.82-7.17.15-14.35.09-21.54-.32-4.09-.23-7.39-2.78-11.69-2.36-8.68.85-17.6-1.17-26.1,2.14-27.26.27-54.52-.17-81.79.42s-54.77.09-82.16.18c-16.85.06-33.71.86-50.54.32-13.66-.43-27.29.26-40.94.07-11.69-.17-23.4-.55-35.11-.3-17.43.36-34.87-.06-52.31.38-21,.54-42,0-63,.66-24,.73-48.13.16-72.2.76-22.79.57-45.6.42-68.4.21-9-.09-17.91,1.76-26.94,1.22-5.33-.32-10.57-1.62-16-1.14-4.08.37-8.2.36-12.3.36q-73.61,0-147.21,0c-24.41,0-48.82.08-73.24,0-20.89-.08-41.82,1-62.63-1.91-1.39-.19-3-.07-2.87-2.06s1.59-1.95,3-2.06c3.62-.29,7.12.26,10.72-2,3.8-2.35,5-3.45,4-8.41-.37-1.77-1.06-2.66-2.9-2.57-8.87.39-17.79-.71-26.63,1-4.6.87-6.39-.65-6.27-5.48.32-11.89-1.55-24,2.52-35.6.48-1.38,1-3.33,2.46-2.13,2.67,2.24,5.15,2.86,8.27,1.47.28-.12.82.3,1.23.49,3.33,1.55,3.88,1.14,4.21-2.32,1-10.8.73-21.65.89-32.45.34-23.71.87-47.42,1.14-71.13,0-2.41.09-4.55-2.48-6.19-2.21-1.4-2.22-4.7-.44-5,2.43-.43,2.87-1.78,3-3.74a3,3,0,0,1,3.38-3.09c2.51,0,6-1.19,7,1.9,1.11,3.49,2.8,4.58,6.13,4.07a2.57,2.57,0,0,1,2,.34c2.32,2.49,4.78,2.29,7.84,1.39,1.54-.45,2.78-.55,3.28-2.19.36-1.17,1.09-1.6,2.26-2.13,3.81-1.72,7.82-3.24,10.84-6.29,3.69-3.73,6.73-8,11-11.32,6-4.73,11.07-10.5,16.66-15.71,17.82-16.64,35.47-33.46,53.16-50.23q19.24-18.24,38.43-36.54,24.25-23.15,48.46-46.34c12.91-12.39,25.84-24.76,38.62-37.28,5.28-5.17,10.54-10.41,15.89-15.46,5.61-5.31,11.33-10.54,16.8-16,4.51-4.49,8.3-9.71,12.68-14.34,10-10.61,20.84-20.44,31.53-30.38,1.31-1.23,2.85-2.28,3.32-4.22,1-4.12,4-6.5,7.71-7.83a6.27,6.27,0,0,0,4-3.34c2.65-5.43,5.39-10.82,8.12-16.22,1-2,2-4.31,4-5.41,2.74-1.52,4.73-3.67,6.91-5.82q16.83-16.56,33.14-33.63c16.56-17.3,33.33-34.41,50-51.57,4.22-4.34,4.49-4.45,1.22-9.31s-5.31-10.33-9.6-14c-3.46-3-5.7-6.73-8.55-10.08-1.75-2-2.73-4.74-1-7.27s4.09-1.78,6.49-.91c1.64.59,3.38.46,3.62-1.77.26-2.49.46-5.08-.93-7.34-.94-1.51-2.06-2.87-.46-4.55s3.32-2.18,5.27-1.14,3.21.12,4.46-1.16Zm-345.72,465c10,1.66,19.79,4,29.59,6.12,21.69,4.74,43.46,9.16,65.19,13.75,17.58,3.71,35.15,7.51,52.74,11.21,11.49,2.42,23,4.7,34.5,7.07,18.2,3.75,36.3,8.14,54.63,11.13,22.41,3.64,44.41,9.15,66.68,13.42,6.72,1.29,13.4,2.77,20.1,4.14,1.36.28,2.83.6,3.33-1.29.64-2.43,2.72-2.93,4.68-3.45,4.83-1.29,5.06-2.67,2-6.48-8.67-10.93-9.85-18.09-.45-29.93,5.08-6.4,11.57-11.26,18.21-15.91,2.22-1.56,4-3.82,6.76-4.56,8.4-2.24,16.45-5.75,25.26-6.59,3.73-.36,7.31-.6,10.57,1.48,3.93,2.5,7.87,1.89,11.76.13a51.8,51.8,0,0,0,5.6-3.28c4.05-2.48,6.56-1.51,7.3,3.12.45,2.82,1.2,4.85,4.6,4.56,1.34-.12,2.18,1,3.25,1.63,1.75,1,4.28,2.51,5.53,0a14.6,14.6,0,0,1,5.31-5.59c5.79-4,16.11-1.15,18.33,5.26,1.86,5.36,3.21,10.9,4.81,16.36.3,1,0,2.61,1.34,2.86s1.9-1.09,2.59-2a140.75,140.75,0,0,0,13.68-20.85c4.19-8,8.28-16,15.08-22.22,9.23-8.5,20.45-9.48,30.56-2.26a8.5,8.5,0,0,0,7.4,1.44c4.69-1.08,8.76-3.87,13.53-4.71.93-.17,1.28-1.18,1.88-1.84,3.58-4,2.42-8.54,1.54-13-2-10.27-5.26-20.29-6-30.83a12.81,12.81,0,0,0-2.64-6.94c-4.71-5.87-9.25-11.88-14.08-17.64a179.44,179.44,0,0,1-27-42.62c-6.43-14.49-12.87-29-18.17-43.93-4-11.21-8.31-22.38-15.46-31.91-5.53-7.37-8.44-15.38-7.86-24.15.84-12.69-3-24-9.11-34.47-5.41-9.26-10.52-18.67-15.63-28.08a242.32,242.32,0,0,0-38.46-52.89c-9.09-9.42-19.41-17.66-27.19-28.34-1.37-1.89-2.65-1.21-3.92.12-3.55,3.71-7.06,7.46-10.65,11.13-3.24,3.31-6,7.05-8.85,10.65-2.76,3.43-6.44,6.11-9.5,9.33-21.47,22.59-44.2,44-63.67,68.45-4.19,5.26-10,7.7-16,10-3,1.12-5.27,2.55-6.36,6a8.93,8.93,0,0,1-6,6.08,9.51,9.51,0,0,0-4.84,2.86c-6.41,6.65-12.94,13.2-19.19,20-8.29,9-18.13,16.32-26.85,24.82-17.56,17.11-34.68,34.66-52.12,51.89-19.71,19.48-39.6,38.78-59.34,58.22q-41.08,40.44-82.07,81c-2.94,2.9-2.91,2.93,1,4.48,6.72,2.63,8.24,9.46,3.31,14.76C270.93,645.65,270.16,646.08,270.22,647.4ZM591.8,743l-.07-.61c-31-6.43-62.05-12.8-93.05-19.31-22.32-4.68-44.55-9.75-66.9-14.26-26.58-5.37-53-11.67-79.59-16.83-13.52-2.61-26.89-6.07-40.35-9-16-3.53-32.08-6.93-48.13-10.37-10.81-2.32-21.62-4.6-32.43-7-2.74-.6-3.57.32-3.57,3.11,0,7.51-.09,15-.39,22.54-.63,15.71-.63,31.44-.86,47.16-.06,4.5,0,4.45,4.33,4.53,2.15,0,4.3.41,6.46.51,14.58.68,29.18-.17,43.77.5,10.11.47,20.25-.52,30.38.07s20-1.05,30.05-1.05c32.94,0,65.87-.31,98.81.52,9.12.24,18.23-.48,27.35-.51,30.11-.08,60.23,0,90.35,0Zm4-4.44,0-.21a2.67,2.67,0,0,0,.68.07,4,4,0,0,0,3.66-3.51c.14-2.18-1.89-.62-2.87-1-2.18-.81-4.32-1.81-5.18-4.09s.18-4.13,1.89-5.79c1-1,3-1.82,2.16-3.82-.76-1.83-2.67-2-4.33-2.31-15.88-3.12-31.78-6.15-47.64-9.33-26.47-5.33-52.95-10.6-79.37-16.21-9-1.91-18.15-3.09-27.13-5.17-11.43-2.65-22.78-5.67-34.4-7.48-2.43-.37-5,.78-7.31-1a10.18,10.18,0,0,0-6.09-2c-7.31-.19-14.36-2.18-21.31-3.94-12.93-3.28-26-6-39.07-8.45-9.29-1.76-18.64-3.36-27.8-5.65-15.58-3.9-31.4-6.49-47.08-9.8-3.73-.79-7.82-.25-11.19-2.67-.55-.39-10.29,3.38-10.54,4a3.78,3.78,0,0,0-.23,1.34,9.83,9.83,0,0,1-2.81,6.79c-1.6,1.76-.67,2.2,1.12,2.46A160.94,160.94,0,0,1,250,664.7c11.87,3.21,24,5,36,7.89,22.84,5.45,45.88,10,68.8,15.15,5.47,1.23,11.4.7,16.43,2.87,7.42,3.21,15.38,4.41,23,5.94,18.2,3.66,36.38,7.46,54.55,11.27,18.94,4,38.06,7,56.83,11.81,21.82,5.53,44.25,8.16,66,13.84C579.6,735.54,587.72,736.9,595.75,738.58Zm-74.64-381c-4.38.87-4.81,1.44-6.31,5s-3.81,6.13-7.68,6.94a5.35,5.35,0,0,0-3.07,2c-8.75,10.4-19.6,18.76-28.43,29.09-4.08,4.76-8.68,9-12.48,14.07-1,1.29-2.15,3.28-4.11,1.82s-3-.56-4.32.73q-9,8.86-18.16,17.64c-23.35,22.42-46.86,44.69-70,67.3-18.52,18.05-37.76,35.35-55.66,54-5.31,5.54-11.73,9.72-17.13,15.15-8.76,8.81-17.89,17.25-26.89,25.82Q248.5,614.61,230.13,632c-1.14,1.08-2,2.34-1.36,3.93a3.49,3.49,0,0,0,4,2,4.55,4.55,0,0,1,4.34,1.52c2.28,3.06,5.22-.16,7.62,1.08.18.09.91-.4,1-.75.85-2.16,3-2.65,4.64-3.78s3.9-2,5.17-3.86A68.16,68.16,0,0,1,265,621.29c18.89-18,36.76-37.06,56-54.73,8.64-7.95,16.89-16.32,25.23-24.59,8.89-8.79,17.48-17.9,26.57-26.47,8.29-7.83,16.27-15.95,24.39-23.94C408,480.84,418.77,470,429.56,459.18c9.66-9.68,19.35-19.34,29.15-28.88.85-.83,2.33-1.56,1.72-3.05-1.09-2.64.54-4.09,2.14-5.57,1.92-1.78,3.91-3.49,5.89-5.2,11.59-10,21.58-21.61,33-31.73a7.39,7.39,0,0,0,2.67-3.47c1-3.81,4.08-5.76,7.3-7.46,1-.52,2.3-.51,2.91-1.61A97.87,97.87,0,0,0,521.11,357.59ZM218.44,671.15h.22c0-1.71-.1-3.43,0-5.13.15-2-.77-3.47-2.62-3.82a60.24,60.24,0,0,0-11.44-1.53c-2.27,0-4.19.08-6-1.43-.86-.72-2.08-1.38-3.05-.22-3.16,3.76-7.33,3.49-11.52,3-1.74-.22-2.62.22-2.74,2-.17,2.5-.55,5-.55,7.49,0,17.65-.19,35.29-.8,52.94-.47,13.54.34,27.1-.68,40.64-.32,4.27,1.65,5.65,5.66,3.86,4.78-2.13,9.39-4.63,14-7,1.72-.87,2.37-2.14,1-3.84-.69-.86-1.19-1.85-.48-2.81a7.31,7.31,0,0,0,1-6.48c-.41-1.74.14-2.62,1.91-1.34,1.36,1,3.12,1.1,3.34-.47.55-3.89,3-2.7,5.41-2.94,2.25-.22,5.93.8,6-3.57Q217.8,705.82,218.44,671.15Zm994.32,70.58c.27,1.23,1.18,1.35,1.85,1.66,4.14,1.88,8.38,3.57,12.46,5.59,5.17,2.56,9.66,5.77,9.22,12.55,0,.77-.07,2,.78,2.07,2.41.28,3.7,2.56,6,3a6.11,6.11,0,0,1,4.81,4.4c.64,2.23,2.07,2.69,4.14,2.56,3.8-.24,7.5.14,10.88,2.2a5.5,5.5,0,0,0,2.64.51c10.94.23,21.87.38,32.81,0,1,0,2.27.22,2.94-1.25-.65-.33-1.14-.6-1.65-.83-10.34-4.48-20.63-9.07-31-13.4-9.43-3.94-18.43-9-28.38-11.66-1.42-.39-2-1.57-2.85-2.71-1.77-2.45-3.72-5.46-6.73-5.82A57.19,57.19,0,0,0,1212.76,741.73ZM518,373.24l.58.54,16.06-8.86c1.62-.89,1.82-2,.8-3.64-1.84-2.92-4.83-4.41-7.53-6.26-1.27-.87-1.81.26-2.24,1.21Q521.81,364.73,518,373.24Zm-3.76-17.62c2,.22,3.11-.88,4.41-1.46a64.74,64.74,0,0,0,9.89-5.93c2-1.37,4.18-2.6,3.6-5.55-.31-1.58-6.26-5.93-7.71-5.68a2.06,2.06,0,0,0-1.26,1C520.19,343.79,517.26,349.62,514.23,355.62Z"/></svg>