<svg id="Layer_1" data-name="Layer 1" xmlns="http://www.w3.org/2000/svg" viewBox="0 0 1500 1500"><defs><style>.cls-1{fill:#fad6ce;}.cls-2{fill:#00262f;}.cls-3{stroke:#000;stroke-miterlimit:10;stroke-width:5.02px;}</style></defs><circle class="cls-1" cx="750" cy="750" r="650"/><path class="cls-2" d="M377.55,919.11c0,18.07-14.09,29.87-34.15,29.87H323.64v49.93H310.16V891.07H343.4C363.46,891.07,377.55,901,377.55,919.11Zm-37.07,23.74c16.09,0,23-11.8,23-23.74s-6.89-21.9-23-21.9H323.64v45.64Z"/><path class="cls-2" d="M412.49,998.91H399V891.07h13.48Z"/><path class="cls-2" d="M452.77,897.21v43.95h31.4v6.13h-31.4v45.49h53.31v6.13H439.29V891.07h66.79v6.14Z"/><path class="cls-2" d="M634.44,998.91l-7.5-9c-7.66,6.9-17.92,10.88-30.63,10.88-25.74,0-38.91-13-38.91-30.79,0-14.24,8.73-25.89,24.66-34-3.53-4-11.79-14.39-11.79-23.27,0-12.57,8.57-22.83,25-22.83,16.55,0,25,8.12,25,21.14,0,14.55-8.42,21.29-20.22,25.43l31.56,37.52c4.13-8,6.43-17.77,6.43-28.64h6.12c0,12.71-2.75,24.36-8.27,33.69l16.7,19.92ZM623,985.28,585.89,941c-8.27,4.29-12.56,14.24-12.56,25.58,0,15.47,7.81,28,23,28C607,994.62,616.07,991.4,623,985.28Zm-40-76.13c0,7.5,7.66,17,12.41,22.06.45,0,18.68-3.37,18.68-20.22,0-8.12-5.51-15-17.76-15C587.88,896,583,903.48,583,909.15Z"/><path class="cls-2" d="M777.37,992.78v6.13H710.59V891.07h13.47V992.78Z"/><path class="cls-2" d="M787,998.91l42.42-110.28H833l42.28,110.28h-14.4l-12.71-33.08H806.63l-12.71,33.08Zm21.9-39.22h36.76L827.31,911.6Z"/><path class="cls-2" d="M952.46,897.21H916.77v101.7H903.29V897.21H867.6v-6.14h84.86Z"/><path class="cls-2" d="M1045.6,897.21h-35.69v101.7H996.43V897.21H960.74v-6.14h84.86Z"/><path class="cls-2" d="M1074.71,897.21v43.95h31.4v6.13h-31.4v45.49H1128v6.13h-66.78V891.07H1128v6.14Z"/><path class="cls-2" d="M1173.67,935.35c17.15,3.82,36,8.11,36,32.92,0,18.39-16.39,33.09-36.76,33.09-12.71,0-24.05-5.82-30.64-14.55l4.45-4.45c5.36,7.67,15.16,12.88,26.19,12.88,10,0,27.87-6.14,27.87-22.06,0-15.62-15.16-19.76-30.94-23.6-15.62-3.82-31.09-8.88-31.09-30.32,0-16.85,15.32-30.63,34.16-30.63,11.49,0,21.75,5.21,27.87,13l-4.28,4.45c-5.06-6.89-13.79-11.34-23.59-11.34-7.51,0-24.81,4.29-24.81,19.46C1148.09,927.22,1159.27,932.12,1173.67,935.35Z"/><path class="cls-2" d="M487.49,1104.41c0,7.36-5.49,12.16-13.3,12.16H466.5v20.33h-5.26V1093h12.95C482,1093,487.49,1097.05,487.49,1104.41Zm-14.43,9.66c6.26,0,8.94-4.8,8.94-9.66s-2.68-8.92-8.94-8.92H466.5v18.58Z"/><path class="cls-2" d="M562.17,1136.9h-5.24V1093h5.24Z"/><path class="cls-2" d="M659.7,1134.4v2.5h-26V1093h5.25v41.41Z"/><path class="cls-2" d="M724.54,1136.9l16.52-44.9h1.37l16.46,44.9h-5.6l-4.95-13.47H732.17l-4.95,13.47Zm8.53-16h14.31l-7.16-19.58Z"/><path class="cls-2" d="M850,1095.49h-13.9v41.41h-5.25v-41.41H817V1093h33Z"/><path class="cls-2" d="M922.46,1095.49v17.9h12.22v2.49H922.46v18.52h20.75v2.5h-26V1093h26v2.5Z"/><path class="cls-2" d="M1022.07,1111c6.68,1.56,14,3.3,14,13.4,0,7.49-6.38,13.48-14.32,13.48a14.71,14.71,0,0,1-11.93-5.93l1.73-1.81a12.29,12.29,0,0,0,10.2,5.24c3.88,0,10.86-2.49,10.86-9s-5.91-8.05-12.05-9.6-12.11-3.62-12.11-12.35c0-6.86,6-12.47,13.3-12.47a13.56,13.56,0,0,1,10.86,5.3l-1.67,1.81a11.17,11.17,0,0,0-9.19-4.62c-2.92,0-9.66,1.75-9.66,7.92C1012.11,1107.71,1016.47,1109.71,1022.07,1111Z"/><line class="cls-3" x1="461.24" y1="1207.72" x2="1038.06" y2="1207.72"/><path class="cls-2" d="M679.5,297.28a4.71,4.71,0,0,1,2,2.23c.38,1.31.87,2.2,2.46,1.47.27-.12.91,0,1,.15,1.14,2,3.47,1.88,5.12,2.88a33.07,33.07,0,0,1,9.35,7.88c3.66,4.79,8.67,8,12.93,12.1.53.5,1.31.92,1.52,1.53,1.42,4.13,4.75,5.76,8.55,6.93,9.5,2.92,12,6.2,12.7,16.31.21,3.07-.5,6.23,1,9.17a9.09,9.09,0,0,0,1.52,2.58c13,12.75,25.64,25.82,39.38,37.73,11.86,10.28,19.16,23.08,23.4,38,2.68,9.41,5.87,18.68,8.47,28.11,2.33,8.49,7,15.47,13.05,21.58,6.32,6.35,12.86,12.49,19.3,18.72a114.07,114.07,0,0,1,17.82,21.87,98.16,98.16,0,0,0,27.48,28.77A80.67,80.67,0,0,1,904.72,573c4.92,6.57,7.13,14.05,7.84,22.18,1,11.32-1.61,21.73-6.58,31.79a76.16,76.16,0,0,0-6.71,20.25c-3.34,18.71-11.78,35-23.46,49.8-1.11,1.41-3.49,2.66-2.46,4.76s3.51,1,5.28.94c12.71-.49,24.85,2.8,37.08,5.46a37.46,37.46,0,0,0,9.75,1.29c7.42-.35,14.8.91,22.21.59,2-.08,3.36,1.33,5.23,1.48,7,.53,14,1.07,21,1.82,4.39.47,8.72,1,12.5,4,2,1.56,4.94,1.63,7.55,2,1.56.22,3,.46,4,1.93a4.2,4.2,0,0,0,3.1,1.61c2.89.19,5.43,1.56,8.19,2.18,2.12.48,4.31.5,4.83,3.7.32,1.91,3,2.45,4.91,3.09a87.48,87.48,0,0,1,17.44,8.52,3.35,3.35,0,0,1,2,3.07,2.07,2.07,0,0,0,1.37,2.15c1,.38,1.11-.72,1.64-1.14a145.6,145.6,0,0,0,10.72-10.21,4.66,4.66,0,0,1,5.09-1c6,2,11.14,5.08,14.64,10.47a4.53,4.53,0,0,0,4.5,2.45c1.46-.12,2.94.06,4.39-.08,2-.17,3.09-1.27,2.62-3.31a21.37,21.37,0,0,1-.34-4.91c0-4.26,2.21-6.83,6.49-6.9,10.34-.16,20.69-.29,31,0,4.31.14,8,2.92,11.93,4.67a12.27,12.27,0,0,0,7.63,1.23,160.1,160.1,0,0,1,32.19-2.79,5.77,5.77,0,0,0,3.17-.65c2.8-1.63,5.6-1.52,8.69-.51,14.54,4.76,28.53,10.92,42.85,16.22,10.9,4,21.57,8.64,32.38,12.88,4.7,1.84,7.74,4.63,8.86,9.51v2.2a14.26,14.26,0,0,1-1,2.82c-2.28,3.73-4.41,7.34-9.67,7.85-2.4.23-4.39-1.1-6.6-.62-14.6,3.15-29.37,3.78-44.23,3-1.42-.07-1.82.54-2.14,1.82-1.64,6.66-6.25,11-13,10.72a10.13,10.13,0,0,0-9,3.74c-1.76,1.93-3.64,3.61-3.66,6.44,0,1.62-.85,2.25-2.43,2.22-3.66-.07-7.32.35-11,.36-28.55.08-57.09.08-85.63.65-5.75.12-11.51.07-17.28-.26-3.28-.18-5.92-2.23-9.38-1.89-7,.69-14.11-.93-20.93,1.72-21.86.21-43.73-.14-65.6.33s-43.93.08-65.89.15c-13.51,0-27,.69-40.54.26-10.95-.35-21.89.2-32.83,0-9.38-.13-18.77-.44-28.17-.24-14,.29-28,0-41.95.31-16.83.43-33.66,0-50.49.53-19.29.58-38.6.13-57.91.61-18.27.45-36.57.33-54.86.16-7.24-.07-14.36,1.41-21.61,1-4.27-.25-8.47-1.3-12.81-.91-3.28.29-6.58.29-9.87.29q-59,0-118.07,0c-19.58,0-39.16.07-58.74,0-16.75-.07-33.54.79-50.23-1.53-1.12-.16-2.37-.06-2.3-1.66s1.27-1.56,2.4-1.65c2.9-.23,5.71.21,8.59-1.58,3.05-1.89,4-2.77,3.19-6.75-.3-1.42-.86-2.13-2.33-2.06-7.11.31-14.27-.57-21.36.77-3.68.69-5.13-.53-5-4.4.25-9.54-1.25-19.21,2-28.55.39-1.11.83-2.67,2-1.71,2.13,1.79,4.13,2.3,6.63,1.18.23-.1.66.24,1,.39,2.68,1.24,3.12.91,3.38-1.86.83-8.66.59-17.36.71-26,.28-19,.7-38,.92-57,0-1.93.07-3.65-2-5-1.77-1.13-1.78-3.77-.35-4,1.95-.34,2.3-1.43,2.42-3a2.43,2.43,0,0,1,2.71-2.48c2,0,4.81-.95,5.6,1.52.88,2.8,2.24,3.68,4.91,3.27a2.08,2.08,0,0,1,1.57.27c1.86,2,3.83,1.84,6.29,1.12,1.24-.36,2.23-.44,2.63-1.76.29-.94.87-1.28,1.82-1.71,3.05-1.38,6.26-2.59,8.69-5,3-3,5.4-6.39,8.79-9.08,4.77-3.8,8.88-8.42,13.36-12.61,14.3-13.34,28.45-26.83,42.64-40.28q15.44-14.62,30.82-29.3,19.46-18.57,38.87-37.17c10.35-9.94,20.72-19.86,31-29.9,4.24-4.15,8.46-8.35,12.75-12.41,4.5-4.25,9.09-8.45,13.47-12.82,3.62-3.61,6.66-7.79,10.17-11.51,8.05-8.5,16.71-16.39,25.29-24.37,1-1,2.29-1.82,2.67-3.38.8-3.3,3.2-5.21,6.17-6.28A5,5,0,0,0,596,433.8c2.12-4.35,4.32-8.67,6.51-13,.83-1.64,1.63-3.46,3.24-4.35a25.82,25.82,0,0,0,5.54-4.66q13.5-13.29,26.58-27c13.28-13.87,26.73-27.59,40.13-41.36,3.38-3.48,3.6-3.57,1-7.46s-4.26-8.29-7.7-11.26c-2.78-2.4-4.57-5.41-6.85-8.09-1.41-1.65-2.2-3.81-.83-5.83s3.29-1.43,5.21-.73c1.32.47,2.71.36,2.9-1.42.21-2,.37-4.08-.74-5.89-.75-1.21-1.65-2.3-.37-3.65a3.35,3.35,0,0,1,4.23-.91c1.59.86,2.57.09,3.58-.93ZM402.22,670.21c8,1.33,15.87,3.19,23.73,4.91,17.4,3.8,34.86,7.34,52.28,11,14.11,3,28.2,6,42.31,9,9.21,1.93,18.45,3.77,27.67,5.67,14.6,3,29.11,6.53,43.81,8.92,18,2.93,35.63,7.34,53.48,10.77,5.39,1,10.75,2.22,16.12,3.32,1.1.22,2.27.48,2.68-1,.51-1.94,2.18-2.35,3.75-2.77,3.87-1,4.06-2.13,1.63-5.19-6.95-8.77-7.9-14.51-.36-24,4.07-5.14,9.27-9,14.6-12.77,1.78-1.25,3.2-3.06,5.42-3.65,6.74-1.8,13.2-4.62,20.26-5.29,3-.29,5.86-.48,8.49,1.19,3.15,2,6.31,1.51,9.43.1a41.3,41.3,0,0,0,4.48-2.63c3.25-2,5.26-1.21,5.86,2.51.36,2.26,1,3.88,3.69,3.65,1.07-.1,1.75.83,2.6,1.31,1.41.78,3.44,2,4.44,0a11.87,11.87,0,0,1,4.26-4.48c4.64-3.24,12.92-.92,14.7,4.22,1.49,4.3,2.58,8.74,3.86,13.12.24.83,0,2.1,1.08,2.3s1.52-.88,2.07-1.58a113.46,113.46,0,0,0,11-16.73c3.35-6.4,6.63-12.8,12.09-17.82,7.4-6.82,16.4-7.6,24.51-1.81a6.84,6.84,0,0,0,5.93,1.16c3.77-.87,7-3.11,10.86-3.79.75-.13,1-.94,1.5-1.47,2.88-3.21,1.94-6.85,1.24-10.41-1.62-8.24-4.22-16.28-4.85-24.73a10.2,10.2,0,0,0-2.12-5.56c-3.78-4.71-7.42-9.53-11.3-14.16a144.06,144.06,0,0,1-21.67-34.18c-5.16-11.62-10.32-23.23-14.58-35.23-3.18-9-6.66-17.95-12.39-25.59-4.44-5.91-6.77-12.34-6.31-19.37.68-10.18-2.41-19.26-7.31-27.65-4.33-7.43-8.44-15-12.53-22.52a194.45,194.45,0,0,0-30.85-42.42c-7.29-7.56-15.56-14.17-21.8-22.74-1.1-1.51-2.14-1-3.15.1-2.85,3-5.66,6-8.54,8.93-2.6,2.66-4.77,5.65-7.1,8.54s-5.17,4.91-7.62,7.49c-17.22,18.12-35.45,35.3-51.07,54.9-3.36,4.22-8,6.17-12.84,8-2.37.9-4.23,2.05-5.11,4.82a7.14,7.14,0,0,1-4.78,4.87,7.67,7.67,0,0,0-3.88,2.29c-5.14,5.34-10.37,10.59-15.39,16-6.65,7.23-14.54,13.1-21.54,19.91-14.08,13.73-27.81,27.8-41.8,41.62-15.81,15.63-31.76,31.1-47.59,46.7q-33,32.43-65.83,65c-2.36,2.33-2.33,2.35.83,3.59,5.39,2.11,6.61,7.6,2.65,11.85C402.78,668.81,402.17,669.15,402.22,670.21ZM660.14,746.9l0-.49c-24.88-5.16-49.77-10.27-74.64-15.49-17.89-3.75-35.73-7.82-53.65-11.44-21.32-4.3-42.48-9.35-63.84-13.49-10.84-2.1-21.56-4.87-32.36-7.24-12.85-2.82-25.73-5.55-38.6-8.31-8.67-1.87-17.35-3.69-26-5.58-2.2-.48-2.87.25-2.87,2.48,0,6-.07,12-.31,18.09-.5,12.6-.5,25.21-.69,37.82-.05,3.61,0,3.57,3.47,3.64,1.73,0,3.46.32,5.19.4,11.69.55,23.39-.14,35.1.4,8.11.38,16.24-.41,24.37.06s16.06-.84,24.1-.84c26.41,0,52.83-.25,79.25.42,7.32.18,14.62-.39,21.93-.41,24.16-.07,48.31,0,72.47,0Zm3.17-3.56,0-.17a2.57,2.57,0,0,0,.55.06,3.18,3.18,0,0,0,2.93-2.82c.11-1.74-1.51-.49-2.3-.79-1.75-.65-3.47-1.44-4.15-3.28s.14-3.31,1.51-4.64c.84-.82,2.41-1.46,1.74-3.07s-2.15-1.58-3.48-1.84c-12.73-2.51-25.49-4.93-38.21-7.49-21.23-4.27-42.47-8.5-63.65-13-7.23-1.53-14.56-2.48-21.77-4.15-9.16-2.12-18.27-4.55-27.59-6-1.94-.31-4,.62-5.86-.8a8.1,8.1,0,0,0-4.88-1.59c-5.87-.16-11.52-1.75-17.09-3.17-10.38-2.63-20.85-4.78-31.34-6.77-7.46-1.41-14.95-2.7-22.3-4.54-12.49-3.12-25.18-5.2-37.76-7.86-3-.63-6.28-.2-9-2.13-.44-.32-8.24,2.71-8.45,3.21a2.8,2.8,0,0,0-.18,1.07,7.86,7.86,0,0,1-2.26,5.45c-1.28,1.41-.53,1.77.9,2a129.06,129.06,0,0,1,15.3,3.07c9.52,2.58,19.28,4,28.88,6.33,18.31,4.38,36.8,8,55.18,12.16,4.39,1,9.14.55,13.18,2.3,5.95,2.57,12.33,3.53,18.43,4.76,14.59,2.93,29.18,6,43.75,9,15.19,3.19,30.52,5.66,45.58,9.48,17.5,4.43,35.49,6.54,53,11.1C650.36,740.9,656.87,742,663.31,743.34ZM603.45,437.77c-3.52.7-3.86,1.15-5.06,4s-3.06,4.92-6.16,5.56a4.33,4.33,0,0,0-2.47,1.61c-7,8.34-15.72,15.05-22.8,23.33-3.27,3.82-7,7.26-10,11.28-.78,1-1.73,2.63-3.29,1.46s-2.41-.44-3.47.59q-7.25,7.11-14.56,14.15c-18.74,18-37.59,35.85-56.19,54-14.84,14.47-30.28,28.35-44.64,43.33-4.25,4.45-9.4,7.8-13.73,12.16-7,7.06-14.35,13.83-21.57,20.7q-14.7,14-29.44,28c-.91.86-1.63,1.88-1.09,3.15a2.81,2.81,0,0,0,3.2,1.58,3.64,3.64,0,0,1,3.48,1.22c1.83,2.45,4.18-.13,6.11.86.15.08.73-.31.84-.6.68-1.73,2.39-2.13,3.72-3s3.13-1.61,4.14-3.09a54.69,54.69,0,0,1,7.53-8.68c15.16-14.45,29.49-29.73,44.91-43.9,6.93-6.37,13.54-13.09,20.24-19.72,7.12-7,14-14.36,21.3-21.24,6.65-6.27,13.06-12.78,19.57-19.19,8.72-8.6,17.35-17.31,26-26,7.74-7.75,15.52-15.51,23.38-23.16.67-.66,1.87-1.25,1.38-2.44-.88-2.12.43-3.28,1.71-4.47,1.54-1.43,3.14-2.8,4.73-4.17,9.29-8,17.31-17.33,26.49-25.45a6,6,0,0,0,2.14-2.78c.84-3.06,3.27-4.63,5.85-6,.79-.42,1.85-.41,2.34-1.29A80.29,80.29,0,0,0,603.45,437.77ZM360.69,689.26h.17c0-1.37-.08-2.75,0-4.11a2.59,2.59,0,0,0-2.1-3.07,48.77,48.77,0,0,0-9.17-1.22c-1.83,0-3.37.06-4.82-1.15-.7-.57-1.67-1.1-2.45-.17-2.54,3-5.88,2.79-9.24,2.37-1.4-.18-2.11.18-2.2,1.62-.14,2-.44,4-.44,6,0,14.15-.16,28.31-.64,42.46-.38,10.86.27,21.74-.55,32.59-.25,3.43,1.33,4.54,4.54,3.1,3.83-1.71,7.53-3.71,11.27-5.62,1.38-.7,1.9-1.72.79-3.08-.55-.69-.95-1.49-.38-2.25a5.86,5.86,0,0,0,.81-5.21c-.33-1.39.12-2.09,1.54-1.06,1.09.8,2.5.87,2.68-.38.44-3.13,2.39-2.17,4.33-2.36s4.76.64,4.83-2.86Q360.17,717.05,360.69,689.26Zm797.49,56.61c.22,1,1,1.08,1.49,1.32,3.32,1.51,6.72,2.87,10,4.49,4.15,2.06,7.75,4.63,7.4,10.06,0,.62-.06,1.59.62,1.67,1.94.23,3,2.05,4.82,2.44a4.88,4.88,0,0,1,3.86,3.53c.51,1.79,1.66,2.16,3.32,2.06a14.41,14.41,0,0,1,8.73,1.76,4.48,4.48,0,0,0,2.11.41c8.78.18,17.55.3,26.32,0,.83,0,1.82.17,2.36-1-.53-.27-.92-.49-1.33-.67-8.29-3.59-16.54-7.27-24.88-10.75-7.57-3.16-14.79-7.17-22.76-9.35-1.14-.31-1.63-1.26-2.29-2.17-1.42-2-3-4.38-5.4-4.67A45.48,45.48,0,0,0,1158.18,745.87ZM600.94,450.32l.46.43,12.89-7.1c1.3-.72,1.46-1.63.64-2.93-1.48-2.34-3.88-3.53-6-5-1-.7-1.45.2-1.8,1Q604,443.49,600.94,450.32Zm-3-14.14c1.6.18,2.49-.7,3.53-1.17a51,51,0,0,0,7.94-4.76c1.6-1.09,3.35-2.07,2.88-4.44-.25-1.27-5-4.76-6.18-4.56a1.66,1.66,0,0,0-1,.79C602.7,426.7,600.36,431.37,597.93,436.18Z"/></svg>