<?xml version="1.0" standalone="no"?>
<!DOCTYPE svg PUBLIC "-//W3C//DTD SVG 20010904//EN" "http://www.w3.org/TR/2001/REC-SVG-20010904/DTD/svg10.dtd">
<!-- Created using Karbon, part of Calligra: http://www.calligra.org/karbon -->
<svg xmlns="http://www.w3.org/2000/svg" xmlns:xlink="http://www.w3.org/1999/xlink" width="204.8pt" height="204.8pt">
<defs/>
<g id="layer0">
  <g id="group0" transform="translate(0.2135, 34.8594)" fill="none">
   <path id="shape0" transform="matrix(2.8008 0 0 2.8008 69.6503 91.3507)" fill="#ffffff" d="M39.514 32.748L2 32.748C0.896 32.748 0 31.852 0 30.748L0 13.699C0 6.145 6.146 0 13.699 0L27.814 0C35.368 0 41.513 6.146 41.513 13.699L41.513 30.748C41.514 31.852 40.618 32.748 39.514 32.748ZM4 28.748L37.514 28.748L37.514 13.699C37.514 8.35 33.163 4 27.815 4L13.699 4C8.351 4 4 8.351 4 13.699Z"/>
   <path id="shape1" transform="matrix(2.8008 0 0 2.8008 96.8041 130.962)" fill="#ffffff" d="M2 18.605C0.896 18.605 0 17.709 0 16.605L0 2C0 0.896 0.896 0 2 0C3.104 0 4 0.896 4 2L4 16.604C4 17.709 3.104 18.605 2 18.605Z"/>
   <path id="shape2" transform="matrix(2.8008 0 0 2.8008 147.569 130.962)" fill="#ffffff" d="M2 18.605C0.896 18.605 0 17.709 0 16.605L0 2C0 0.896 0.896 0 2 0C3.104 0 4 0.896 4 2L4 16.604C4 17.709 3.104 18.605 2 18.605Z"/>
   <path id="shape3" transform="matrix(2.8008 0 0 2.8008 92.9586 0.293882)" fill="#ffffff" d="M12.942 28.491L11.927 28.491C5.35 28.491 0 23.141 0 16.565L0 11.927C0 5.35 5.35 0 11.927 0L12.942 0C19.518 0 24.868 5.35 24.868 11.927L24.868 16.565C24.869 23.141 19.518 28.491 12.942 28.491ZM11.928 4.001C7.557 4.001 4.001 7.557 4.001 11.928L4.001 16.566C4.001 20.937 7.557 24.492 11.928 24.492L12.943 24.492C17.314 24.492 20.869 20.936 20.869 16.566L20.869 11.928C20.869 7.557 17.313 4.001 12.943 4.001Z"/>
   <path id="shape4" transform="matrix(2.8008 0 0 2.8008 167.749 89.8585)" fill="#ffffff" d="M0.206797 0.242776C-0.509203 -0.598224 0.921797 1.08378 0.206797 0.242776Z"/>
   <path id="shape5" transform="matrix(2.8008 0 0 2.8008 86.6699 89.8585)" fill="#ffffff" d="M0.206297 0.242776C-0.508703 1.08378 0.922297 -0.598224 0.206297 0.242776Z"/>
  </g>
 </g>
</svg>
