<svg width="1200" height="855" xmlns="http://www.w3.org/2000/svg" data-name="Layer 1">

 <g>
  <title>Layer 1</title>
  <path id="svg_1" fill="#fff" d="m124.01759,755.33c0,22 -17.15,36.36 -41.58,36.36l-24,0l0,60.78l-16.48,0l0,-131.27l40.47,0c24.43,0 41.59,12.13 41.59,34.13zm-45.13,28.9c19.58,0 28,-14.36 28,-28.9s-8.4,-26.66 -28,-26.66l-20.5,0l0,55.56l20.5,0z" class="cls-1"/>
  <path id="svg_2" fill="#fff" d="m166.52759,852.47l-16.4,0l0,-131.27l16.4,0l0,131.27z" class="cls-1"/>
  <path id="svg_3" fill="#fff" d="m215.57759,728.67l0,53.5l38.23,0l0,7.46l-38.23,0l0,55.38l64.89,0l0,7.46l-81.3,0l0,-131.27l81.3,0l0,7.47l-64.89,0z" class="cls-1"/>
  <path id="svg_4" fill="#fff" d="m436.73759,852.47l-9.14,-11c-9.32,8.4 -21.82,13.24 -37.29,13.24c-31.33,0 -47.37,-15.84 -47.37,-37.48c0,-17.34 10.64,-31.51 30,-41.4c-4.29,-4.84 -14.36,-17.52 -14.36,-28.33c0,-15.3 10.44,-27.79 30.39,-27.79c20.14,0 30.4,9.89 30.4,25.73c0,17.72 -10.26,25.93 -24.62,31l38.42,45.68c5,-9.7 7.83,-21.63 7.83,-34.87l7.46,0c0,15.48 -3.36,29.65 -10.07,41l20.32,24.24l-21.97,-0.02zm-14,-16.59l-45.12,-53.89c-10.07,5.22 -15.29,17.34 -15.29,31.14c0,18.84 9.51,34.12 28,34.12c13.03,0 24.04,-3.92 32.42,-11.37l-0.01,0zm-48.66,-92.68c0,9.14 9.32,20.7 15.1,26.86c0.56,0 22.75,-4.1 22.75,-24.62c0,-9.88 -6.71,-18.27 -21.63,-18.27c-10.28,0 -16.21,9.13 -16.21,16.03l-0.01,0z" class="cls-1"/>
  <path id="svg_5" fill="#fff" d="m610.72759,845.01l0,7.46l-81.3,0l0,-131.27l16.41,0l0,123.81l64.89,0z" class="cls-1"/>
  <path id="svg_6" fill="#fff" d="m622.47759,852.47l51.66,-134.25l4.28,0l51.47,134.25l-17.53,0l-15.48,-40.27l-50.53,0l-15.48,40.27l-8.39,0zm26.67,-47.73l44.75,0l-22.38,-58.55l-22.37,58.55z" class="cls-1"/>
  <path id="svg_7" fill="#fff" d="m823.87759,728.67l-43.45,0l0,123.8l-16.41,0l0,-123.8l-43.45,0l0,-7.47l103.31,0l0,7.47z" class="cls-1"/>
  <path id="svg_8" fill="#fff" d="m937.25759,728.67l-43.45,0l0,123.8l-16.41,0l0,-123.8l-43.44,0l0,-7.47l103.3,0l0,7.47z" class="cls-1"/>
  <path id="svg_9" fill="#fff" d="m972.69759,728.67l0,53.5l38.22,0l0,7.46l-38.22,0l0,55.38l64.89,0l0,7.46l-81.31,0l0,-131.27l81.31,0l0,7.47l-64.89,0z" class="cls-1"/>
  <path id="svg_10" fill="#fff" d="m1093.15759,775.09c20.89,4.66 43.82,9.88 43.82,40.09c0,22.38 -20,40.28 -44.75,40.28c-15.48,0 -29.28,-7.09 -37.29,-17.72l5.41,-5.41c6.52,9.33 18.45,15.67 31.88,15.67c12.12,0 33.93,-7.46 33.93,-26.85c0,-19 -18.45,-24 -37.66,-28.72c-19,-4.66 -37.85,-10.81 -37.85,-36.92c0,-20.51 18.65,-37.29 41.58,-37.29c14,0 26.48,6.34 33.93,15.84l-5.21,5.41c-6.16,-8.38 -16.78,-13.79 -28.72,-13.79c-9.14,0 -30.21,5.21 -30.21,23.68c0,15.85 13.61,21.81 31.14,25.73z" class="cls-1"/>
  <path id="svg_19" fill="#fff" d="m465.95759,0a5.94,5.94 0 0 1 2.44,2.79c0.47,1.63 1.08,2.73 3.06,1.83c0.35,-0.15 1.15,-0.06 1.28,0.18c1.42,2.54 4.32,2.35 6.39,3.6a41.18,41.18 0 0 1 11.65,9.82c4.57,6 10.81,10 16.12,15.08c0.66,0.63 1.64,1.15 1.9,1.91c1.76,5.15 5.92,7.18 10.66,8.64c11.84,3.65 15,7.73 15.84,20.34c0.25,3.83 -0.63,7.77 1.26,11.44a11.45,11.45 0 0 0 1.89,3.21c16.16,15.9 32,32.19 49.11,47c14.78,12.82 23.89,28.78 29.17,47.33c3.35,11.73 7.32,23.28 10.56,35c2.91,10.59 8.69,19.3 16.27,26.91c7.89,7.92 16,15.57 24.07,23.35a142.18,142.18 0 0 1 22.22,27.26a122.32,122.32 0 0 0 34.26,35.87a100.78,100.78 0 0 1 22.66,22.17c6.12,8.19 8.89,17.51 9.77,27.66c1.23,14.1 -2,27.09 -8.2,39.63a94.18,94.18 0 0 0 -8.32,25.33c-4.17,23.32 -14.69,43.64 -29.25,62.09c-1.39,1.75 -4.35,3.31 -3.07,5.93s4.38,1.26 6.58,1.17c15.85,-0.61 31,3.49 46.24,6.81c4,0.88 8,1.82 12.15,1.62c9.25,-0.45 18.45,1.12 27.69,0.73c2.43,-0.11 4.18,1.66 6.52,1.84c8.73,0.66 17.47,1.34 26.18,2.27c5.48,0.59 10.88,1.22 15.59,5c2.44,1.94 6.16,2 9.41,2.5c2,0.28 3.75,0.57 5,2.42a5.23,5.23 0 0 0 3.86,2c3.61,0.24 6.77,2 10.21,2.72c2.65,0.59 5.37,0.62 6,4.61c0.39,2.38 3.74,3.06 6.11,3.86a109,109 0 0 1 21.78,10.57c1.43,0.86 2.54,2 2.46,3.82a2.58,2.58 0 0 0 1.71,2.69c1.18,0.47 1.38,-0.9 2,-1.43c4.81,-3.87 9,-8.4 13.36,-12.73a5.82,5.82 0 0 1 6.35,-1.29c7.42,2.45 13.9,6.33 18.25,13.05c1.38,2.12 3,3.28 5.62,3.06c1.82,-0.15 3.66,0.07 5.47,-0.1c2.44,-0.22 3.86,-1.58 3.27,-4.13a25.79,25.79 0 0 1 -0.42,-6.12c0.05,-5.32 2.75,-8.52 8.08,-8.6c12.89,-0.2 25.8,-0.36 38.68,0.06c5.37,0.18 10,3.64 14.87,5.82c3.13,1.4 6,2.18 9.52,1.53a200,200 0 0 1 40.13,-3.47a7.3,7.3 0 0 0 4,-0.81c3.49,-2 7,-1.9 10.83,-0.63c18.12,5.92 35.57,13.61 53.43,20.21c13.59,5 26.89,10.77 40.37,16.06c5.86,2.3 9.65,5.77 11,11.86l0,2.74a17.67,17.67 0 0 1 -1.24,3.52c-2.84,4.65 -5.5,9.14 -12.06,9.78c-3,0.29 -5.47,-1.37 -8.24,-0.77c-18.2,3.92 -36.61,4.72 -55.14,3.77c-1.77,-0.09 -2.27,0.67 -2.67,2.27c-2,8.3 -7.78,13.77 -16.26,13.37c-5.08,-0.24 -8.09,1.23 -11.19,4.65c-2.19,2.41 -4.54,4.5 -4.56,8c0,2 -1.07,2.8 -3,2.77c-4.57,-0.1 -9.12,0.42 -13.67,0.44c-35.59,0.1 -71.18,0.1 -106.76,0.81c-7.17,0.15 -14.35,0.09 -21.54,-0.32c-4.09,-0.23 -7.39,-2.78 -11.69,-2.36c-8.68,0.86 -17.6,-1.16 -26.1,2.14c-27.26,0.27 -54.52,-0.17 -81.79,0.42s-54.77,0.09 -82.16,0.18c-16.85,0.06 -33.71,0.87 -50.54,0.33c-13.66,-0.44 -27.29,0.25 -40.94,0.06c-11.69,-0.17 -23.4,-0.55 -35.11,-0.3c-17.43,0.36 -34.87,-0.06 -52.31,0.38c-21,0.54 -42,0 -63,0.66c-24,0.73 -48.13,0.17 -72.2,0.76c-22.79,0.57 -45.6,0.42 -68.4,0.21c-9,-0.09 -17.91,1.76 -26.94,1.22c-5.33,-0.31 -10.57,-1.62 -16,-1.14c-4.08,0.37 -8.2,0.36 -12.3,0.36q-73.61,0 -147.21,0c-24.41,0 -48.82,0.08 -73.24,0c-20.89,-0.09 -41.82,1 -62.63,-1.91c-1.39,-0.2 -3,-0.08 -2.87,-2.07s1.59,-2 3,-2.06c3.62,-0.29 7.12,0.26 10.72,-2c3.8,-2.35 5,-3.45 4,-8.41c-0.37,-1.77 -1.06,-2.65 -2.9,-2.57c-8.87,0.39 -17.79,-0.71 -26.63,1c-4.6,0.86 -6.39,-0.66 -6.27,-5.48c0.32,-11.9 -1.55,-24 2.52,-35.61c0.48,-1.37 1,-3.33 2.46,-2.12c2.67,2.23 5.15,2.86 8.27,1.46c0.28,-0.12 0.82,0.3 1.23,0.49c3.33,1.55 3.88,1.14 4.21,-2.32c1,-10.8 0.73,-21.65 0.89,-32.45c0.34,-23.71 0.87,-47.42 1.14,-71.13c0,-2.41 0.09,-4.55 -2.48,-6.18c-2.21,-1.41 -2.22,-4.7 -0.44,-5c2.43,-0.43 2.87,-1.78 3,-3.74a3,3 0 0 1 3.38,-3.09c2.51,0 6,-1.19 7,1.9c1.11,3.49 2.8,4.58 6.13,4.07a2.62,2.62 0 0 1 2,0.34c2.32,2.49 4.78,2.3 7.84,1.4c1.54,-0.46 2.78,-0.56 3.28,-2.19c0.36,-1.18 1.09,-1.61 2.26,-2.14c3.81,-1.72 7.82,-3.23 10.84,-6.29c3.69,-3.73 6.73,-8 11,-11.32c6,-4.73 11.07,-10.5 16.66,-15.71c17.82,-16.64 35.47,-33.46 53.16,-50.23q19.17,-18.22 38.36,-36.52q24.25,-23.14 48.46,-46.35c12.91,-12.39 25.84,-24.76 38.62,-37.28c5.28,-5.17 10.54,-10.4 15.89,-15.46c5.61,-5.31 11.33,-10.54 16.8,-16c4.51,-4.5 8.3,-9.71 12.68,-14.35c10,-10.61 20.84,-20.44 31.53,-30.38c1.31,-1.22 2.85,-2.28 3.32,-4.22c1,-4.12 4,-6.5 7.71,-7.83a6.27,6.27 0 0 0 4,-3.34c2.65,-5.43 5.39,-10.82 8.12,-16.21c1,-2.05 2,-4.32 4,-5.42c2.74,-1.52 4.73,-3.67 6.91,-5.82q16.83,-16.54 33.11,-33.61c16.56,-17.3 33.33,-34.41 50,-51.57c4.22,-4.34 4.49,-4.45 1.22,-9.31s-5.31,-10.33 -9.6,-14c-3.46,-3 -5.7,-6.73 -8.55,-10.07c-1.75,-2.06 -2.73,-4.75 -1,-7.27s4.09,-1.79 6.49,-0.92c1.64,0.59 3.38,0.46 3.62,-1.77c0.26,-2.49 0.46,-5.08 -0.93,-7.34c-0.94,-1.51 -2.06,-2.87 -0.46,-4.54s3.32,-2.19 5.27,-1.14s3.21,0.11 4.46,-1.17l1.42,-0.04zm-345.72,465c10,1.66 19.79,4 29.59,6.12c21.69,4.75 43.46,9.16 65.19,13.75c17.58,3.71 35.15,7.52 52.74,11.21c11.49,2.42 23,4.71 34.5,7.08c18.2,3.75 36.3,8.14 54.63,11.12c22.41,3.65 44.41,9.15 66.68,13.42c6.72,1.29 13.4,2.77 20.1,4.15c1.36,0.28 2.83,0.59 3.33,-1.3c0.64,-2.42 2.72,-2.93 4.68,-3.45c4.83,-1.29 5.06,-2.67 2,-6.48c-8.67,-10.93 -9.85,-18.09 -0.45,-29.92c5.08,-6.4 11.57,-11.27 18.21,-15.92c2.22,-1.56 4,-3.82 6.76,-4.56c8.4,-2.24 16.45,-5.75 25.26,-6.59c3.73,-0.35 7.31,-0.6 10.57,1.48c3.93,2.51 7.87,1.89 11.76,0.14a53.59,53.59 0 0 0 5.6,-3.29c4.05,-2.48 6.56,-1.5 7.3,3.13c0.45,2.81 1.2,4.84 4.6,4.55c1.34,-0.12 2.18,1 3.25,1.63c1.75,1 4.28,2.51 5.53,0a14.6,14.6 0 0 1 5.31,-5.59c5.79,-4.05 16.11,-1.15 18.33,5.26c1.86,5.37 3.21,10.9 4.81,16.36c0.3,1 0,2.61 1.34,2.86s1.9,-1.09 2.59,-2a140.23,140.23 0 0 0 13.68,-20.85c4.19,-8 8.28,-16 15.08,-22.22c9.23,-8.5 20.45,-9.48 30.56,-2.25a8.57,8.57 0 0 0 7.4,1.44c4.69,-1.09 8.76,-3.88 13.53,-4.72c0.93,-0.16 1.28,-1.18 1.88,-1.84c3.58,-4 2.42,-8.54 1.54,-13c-2,-10.27 -5.26,-20.29 -6,-30.83a12.75,12.75 0 0 0 -2.64,-6.93c-4.71,-5.88 -9.25,-11.89 -14.08,-17.65a179.24,179.24 0 0 1 -27,-42.62c-6.43,-14.49 -12.87,-29 -18.17,-43.92c-4,-11.21 -8.31,-22.39 -15.46,-31.91c-5.53,-7.37 -8.44,-15.39 -7.86,-24.15c0.84,-12.7 -3,-24 -9.11,-34.48c-5.41,-9.26 -10.52,-18.67 -15.63,-28.08a242.56,242.56 0 0 0 -38.46,-52.89c-9.09,-9.42 -19.41,-17.66 -27.19,-28.34c-1.37,-1.89 -2.65,-1.21 -3.92,0.12c-3.55,3.71 -7.06,7.46 -10.65,11.13c-3.24,3.31 -6,7.05 -8.85,10.65c-2.76,3.43 -6.44,6.12 -9.5,9.34c-21.47,22.58 -44.2,44 -63.67,68.45c-4.19,5.26 -10,7.69 -16,10c-3,1.12 -5.27,2.55 -6.36,6a8.91,8.91 0 0 1 -6,6.08a9.51,9.51 0 0 0 -4.84,2.86c-6.41,6.66 -12.94,13.2 -19.19,20c-8.29,9 -18.13,16.32 -26.85,24.82c-17.59,17.04 -34.67,34.6 -52.15,51.84c-19.71,19.47 -39.6,38.77 -59.34,58.21q-41.08,40.46 -82.07,81c-2.94,2.91 -2.91,2.93 1,4.48c6.72,2.63 8.24,9.47 3.31,14.77c-0.49,0.56 -1.26,0.98 -1.2,2.3l0,0.03zm321.58,95.59l-0.07,-0.61c-31,-6.43 -62.05,-12.8 -93.05,-19.31c-22.32,-4.68 -44.55,-9.75 -66.9,-14.26c-26.58,-5.37 -53,-11.67 -79.59,-16.82c-13.52,-2.62 -26.89,-6.07 -40.35,-9c-16,-3.52 -32.08,-6.92 -48.13,-10.37c-10.81,-2.32 -21.62,-4.59 -32.43,-6.95c-2.74,-0.6 -3.57,0.32 -3.57,3.1c0,7.51 -0.09,15 -0.39,22.54c-0.63,15.71 -0.63,31.44 -0.86,47.17c-0.06,4.49 0,4.44 4.33,4.52c2.15,0.05 4.3,0.41 6.46,0.51c14.58,0.68 29.18,-0.17 43.77,0.5c10.11,0.47 20.25,-0.51 30.38,0.07s20,-1 30.05,-1c32.94,0 65.87,-0.31 98.81,0.53c9.12,0.23 18.23,-0.49 27.35,-0.51c30.11,-0.09 60.23,0 90.35,0l33.84,-0.11zm4,-4.44l0,-0.21a2.67,2.67 0 0 0 0.68,0.07a4,4 0 0 0 3.66,-3.51c0.14,-2.18 -1.89,-0.61 -2.87,-1c-2.18,-0.81 -4.32,-1.81 -5.18,-4.09s0.18,-4.13 1.89,-5.79c1,-1 3,-1.82 2.16,-3.82c-0.76,-1.83 -2.67,-2 -4.33,-2.31c-15.89,-3.08 -31.81,-6.08 -47.65,-9.31c-26.47,-5.32 -52.95,-10.6 -79.37,-16.21c-9,-1.91 -18.15,-3.09 -27.13,-5.17c-11.43,-2.65 -22.78,-5.67 -34.4,-7.48c-2.43,-0.37 -5,0.78 -7.31,-1a10.18,10.18 0 0 0 -6.09,-2c-7.31,-0.19 -14.36,-2.18 -21.31,-3.94c-12.93,-3.28 -26,-6 -39.07,-8.44c-9.29,-1.76 -18.64,-3.37 -27.8,-5.66c-15.58,-3.9 -31.4,-6.49 -47.08,-9.8c-3.73,-0.79 -7.82,-0.25 -11.19,-2.67c-0.55,-0.39 -10.29,3.39 -10.54,4a3.72,3.72 0 0 0 -0.23,1.33a9.83,9.83 0 0 1 -2.81,6.79c-1.6,1.76 -0.67,2.21 1.12,2.46a160.94,160.94 0 0 1 19.05,3.88c11.87,3.22 24,5 36,7.89c22.84,5.46 45.88,10 68.8,15.16c5.47,1.22 11.4,0.69 16.43,2.87c7.42,3.2 15.38,4.4 23,5.93c18.2,3.66 36.38,7.46 54.55,11.27c18.94,4 38.06,7 56.83,11.81c21.82,5.53 44.25,8.16 66,13.84c7.99,2.07 16.11,3.43 24.14,5.11l0.05,0zm-74.64,-381c-4.38,0.87 -4.81,1.44 -6.31,5s-3.81,6.12 -7.68,6.93a5.4,5.4 0 0 0 -3.07,2c-8.75,10.41 -19.6,18.76 -28.43,29.09c-4.08,4.76 -8.68,9.06 -12.48,14.07c-1,1.29 -2.15,3.28 -4.11,1.82s-3,-0.56 -4.32,0.74q-9,8.85 -18.16,17.63c-23.35,22.43 -46.86,44.69 -70,67.3c-18.52,18 -37.76,35.35 -55.66,54c-5.31,5.54 -11.73,9.73 -17.13,15.15c-8.76,8.81 -17.89,17.26 -26.89,25.82q-18.33,17.45 -36.7,34.84c-1.14,1.08 -2,2.35 -1.36,3.93a3.47,3.47 0 0 0 4,2a4.57,4.57 0 0 1 4.34,1.52c2.28,3.06 5.22,-0.16 7.62,1.08c0.18,0.1 0.91,-0.39 1,-0.74c0.85,-2.16 3,-2.66 4.64,-3.78s3.9,-2 5.17,-3.87a68.09,68.09 0 0 1 9.37,-10.81c18.89,-18 36.76,-37.07 56,-54.74c8.64,-7.94 16.89,-16.32 25.23,-24.58c8.89,-8.8 17.48,-17.91 26.57,-26.48c8.29,-7.82 16.27,-15.95 24.39,-23.94c10.81,-10.72 21.58,-21.57 32.37,-32.38c9.66,-9.67 19.35,-19.34 29.15,-28.88c0.85,-0.82 2.33,-1.56 1.72,-3c-1.09,-2.63 0.54,-4.09 2.14,-5.57c1.92,-1.78 3.91,-3.49 5.89,-5.2c11.59,-10 21.58,-21.61 33,-31.73a7.36,7.36 0 0 0 2.67,-3.46c1,-3.82 4.08,-5.77 7.3,-7.47c1,-0.52 2.3,-0.51 2.91,-1.61a98.22,98.22 0 0 0 6.77,-14.66l0.05,-0.02zm-302.72,313.57l0.22,0c0,-1.71 -0.1,-3.43 0,-5.13c0.15,-2 -0.77,-3.47 -2.62,-3.82a60.23,60.23 0 0 0 -11.44,-1.52c-2.27,0 -4.19,0.07 -6,-1.44c-0.86,-0.71 -2.08,-1.37 -3.05,-0.22c-3.16,3.76 -7.33,3.49 -11.52,3c-1.74,-0.22 -2.62,0.22 -2.74,2c-0.17,2.49 -0.55,5 -0.55,7.48c0,17.65 -0.19,35.3 -0.8,52.94c-0.47,13.54 0.34,27.1 -0.68,40.64c-0.32,4.27 1.65,5.66 5.66,3.86c4.78,-2.13 9.39,-4.62 14,-7c1.72,-0.87 2.37,-2.14 1,-3.84c-0.69,-0.86 -1.19,-1.85 -0.48,-2.8a7.33,7.33 0 0 0 1,-6.49c-0.41,-1.74 0.14,-2.62 1.91,-1.34c1.36,1 3.12,1.1 3.34,-0.47c0.55,-3.89 3,-2.69 5.41,-2.94c2.25,-0.22 5.93,0.8 6,-3.56q0.7,-34.66 1.34,-69.35zm994.32,70.59c0.27,1.22 1.18,1.34 1.85,1.65c4.14,1.88 8.38,3.57 12.46,5.59c5.17,2.57 9.66,5.78 9.22,12.55c0,0.77 -0.07,2 0.78,2.07c2.41,0.29 3.7,2.56 6,3a6.11,6.11 0 0 1 4.81,4.4c0.64,2.23 2.07,2.7 4.14,2.56c3.8,-0.24 7.5,0.14 10.88,2.2a5.5,5.5 0 0 0 2.64,0.51c10.94,0.23 21.87,0.38 32.81,0c1,0 2.27,0.21 2.94,-1.26c-0.65,-0.33 -1.14,-0.6 -1.65,-0.82c-10.34,-4.49 -20.63,-9.08 -31,-13.41c-9.43,-3.94 -18.43,-9 -28.38,-11.66c-1.42,-0.38 -2,-1.57 -2.85,-2.71c-1.77,-2.45 -3.72,-5.46 -6.73,-5.82a56.9,56.9 0 0 0 -17.92,1.15zm-694.76,-368.5l0.58,0.54q8,-4.43 16.06,-8.85c1.62,-0.9 1.82,-2 0.8,-3.65c-1.84,-2.92 -4.83,-4.41 -7.53,-6.26c-1.27,-0.87 -1.81,0.26 -2.24,1.21q-3.86,8.51 -7.67,17.01zm-3.76,-17.62c2,0.22 3.11,-0.88 4.41,-1.46a64,64 0 0 0 9.89,-5.93c2,-1.37 4.18,-2.59 3.6,-5.54c-0.31,-1.59 -6.26,-5.94 -7.71,-5.69a2.06,2.06 0 0 0 -1.26,1c-2.98,5.84 -5.91,11.62 -8.94,17.62l0.01,0z" class="cls-1"/>
 </g>
</svg>